<svg xmlns="http://www.w3.org/2000/svg" version="1.1"
	xmlns:xlink="http://www.w3.org/1999/xlink"
	xmlns:svgjs="http://svgjs.com/svgjs" width="512" height="512" x="0" y="0" viewBox="0 0 48 48" style="enable-background:new 0 0 512 512" xml:space="preserve" class="">
	<g>
		<g xmlns="http://www.w3.org/2000/svg" id="Heart_Rate" data-name="Heart Rate">
			<path d="M6.0518,26h9.2714l3.7481-9.3716a1.0006,1.0006,0,0,1,1.8906.0967l3.1963,11.1875,2.9131-7.2842a1,1,0,0,1,1.8769.0552L30.7207,26H41.9478l.5678-.5474A11.8453,11.8453,0,0,0,34.2627,5.09h-.0205a11.6127,11.6127,0,0,0-9.1611,4.4385q-.564.7149-1.0811,1.4883-.5155-.7713-1.0811-1.4883A11.6127,11.6127,0,0,0,13.7578,5.09h-.0205A11.8455,11.8455,0,0,0,5.4844,25.4531Z" fill="#1E6091" data-original="#000000" class=""></path>
			<path d="M30,28a.9988.9988,0,0,1-.9482-.6836l-1.1368-3.41-2.9863,7.4653A1.0006,1.0006,0,0,1,24,32c-.0166,0-.0342,0-.0508-.0015a1,1,0,0,1-.9111-.7236L19.8418,20.0874l-2.9131,7.2842A1.0006,1.0006,0,0,1,16,28H8.1268L23.3057,42.63a1.0013,1.0013,0,0,0,1.3886,0L39.8727,28Z" fill="#1E6091" data-original="#000000" class=""></path>
		</g>
	</g>
</svg>