<?xml version="1.0" encoding="UTF-8" standalone="no"?>
<!-- Created with Inkscape (http://www.inkscape.org/) -->

<svg
   version="1.1"
   id="svg2"
   xml:space="preserve"
   width="666.66663"
   height="496.81198"
   viewBox="0 0 666.66663 496.81198"
   sodipodi:docname="e41d0f10e5e601673b7709c4e5369787.eps"
   xmlns:inkscape="http://www.inkscape.org/namespaces/inkscape"
   xmlns:sodipodi="http://sodipodi.sourceforge.net/DTD/sodipodi-0.dtd"
   xmlns="http://www.w3.org/2000/svg"
   xmlns:svg="http://www.w3.org/2000/svg"><defs
     id="defs6" /><sodipodi:namedview
     id="namedview4"
     pagecolor="#ffffff"
     bordercolor="#666666"
     borderopacity="1.0"
     inkscape:pageshadow="2"
     inkscape:pageopacity="0.0"
     inkscape:pagecheckerboard="0" /><g
     id="g8"
     inkscape:groupmode="layer"
     inkscape:label="ink_ext_XXXXXX"
     transform="matrix(1.3333333,0,0,-1.3333333,0,496.81199)"><g
       id="g10"
       transform="scale(0.1)"><path
         d="m 0,449.129 h 5000 v 2.5 H 0 Z"
         style="fill:#e7e8e5;fill-opacity:1;fill-rule:nonzero;stroke:none"
         id="path12" /><path
         d="m 439.152,3723.59 c -30.101,0 -54.582,-24.48 -54.582,-54.57 V 954.699 c 0,-30.097 24.481,-54.578 54.582,-54.578 H 2370.14 c 30.08,0 54.57,24.481 54.57,54.578 V 3669.02 c 0,30.09 -24.49,54.57 -54.57,54.57 H 439.152 M 2370.14,897.621 H 439.152 c -31.476,0 -57.082,25.598 -57.082,57.078 V 3669.02 c 0,31.46 25.606,57.07 57.082,57.07 H 2370.14 c 31.46,0 57.07,-25.61 57.07,-57.07 V 954.699 c 0,-31.48 -25.61,-57.078 -57.07,-57.078"
         style="fill:#e7e8e5;fill-opacity:1;fill-rule:nonzero;stroke:none"
         id="path14" /><path
         d="m 2602.12,3723.59 c -30.09,0 -54.57,-24.48 -54.57,-54.57 V 954.699 c 0,-30.097 24.48,-54.578 54.57,-54.578 h 1930.99 c 30.09,0 54.58,24.481 54.58,54.578 V 3669.02 c 0,30.09 -24.49,54.57 -54.58,54.57 H 2602.12 M 4533.11,897.621 H 2602.12 c -31.47,0 -57.07,25.598 -57.07,57.078 V 3669.02 c 0,31.46 25.6,57.07 57.07,57.07 h 1930.99 c 31.47,0 57.08,-25.61 57.08,-57.07 V 954.699 c 0,-31.48 -25.61,-57.078 -57.08,-57.078"
         style="fill:#e7e8e5;fill-opacity:1;fill-rule:nonzero;stroke:none"
         id="path16" /><path
         d="m 3950,1328.95 c -210,456.67 -961.57,304.29 -1402.45,820.48 -440.88,516.19 -847.28,1249.42 -1314.21,1097.08 -253.629,-82.74 -404.817,-18.83 -514.059,45.09 -91.879,53.76 -154.086,107.52 -222.609,74.02 -150,-73.34 14.73,-227.76 240,-255.67 330.868,-41 645.698,-181.23 709.998,-506.53 73.35,-371.14 -298.85,-293.88 -440,-187.8 -163.334,122.74 -333.342,-186.67 -3.34,-240 96.25,-15.56 213.97,-12.45 341.96,-9.34 310.79,7.56 682.14,15.12 953.74,-244.67 242.08,-231.55 486.53,-292.31 806.53,-395.26 320,-102.96 -371.12,-527.678 -513.34,-765.319 C 2450,523.391 2566.67,451.629 2566.67,451.629 h 792.5 c 290,46.672 800.83,420.652 590.83,877.321"
         style="fill:#f3f2f1;fill-opacity:1;fill-rule:nonzero;stroke:none"
         id="path18" /><path
         d="m 985.121,2592.37 c -85.141,30.79 -199.223,180.69 -67.91,195.35 131.309,14.66 225.559,-252.36 67.91,-195.35"
         style="fill:#f3f2f1;fill-opacity:1;fill-rule:nonzero;stroke:none"
         id="path20" /><path
         d="m 3794.41,1946.91 c 61.01,82.03 336.38,181.64 353.03,49.25 16.65,-132.39 -465.99,-201.13 -353.03,-49.25"
         style="fill:#f3f2f1;fill-opacity:1;fill-rule:nonzero;stroke:none"
         id="path22" /><path
         d="m 1568.76,1423.37 c -60.98,-34.42 -438.42,261.56 -297.96,371.22 140.46,109.66 333.99,-350.89 297.96,-371.22"
         style="fill:#f3f2f1;fill-opacity:1;fill-rule:nonzero;stroke:none"
         id="path24" /><path
         d="m 3343.82,3275.71 c -42.94,74.69 -27.52,321.01 80.42,289.44 107.94,-31.56 -0.92,-427.75 -80.42,-289.44"
         style="fill:#f3f2f1;fill-opacity:1;fill-rule:nonzero;stroke:none"
         id="path26" /><path
         d="m 2794.67,2129.83 c -306.9,422.49 119.34,787.71 620.64,920.23 501.29,132.52 371.84,293.69 279.16,411.58 -92.67,117.9 60.18,260.08 253.23,141.24 193.04,-118.83 146.84,-429.97 -141.75,-632.77 -288.59,-202.8 -193.51,-307.85 -36.95,-648.1 178.78,-388.55 -623.12,-675.68 -974.33,-192.18"
         style="fill:#f3f2f1;fill-opacity:1;fill-rule:nonzero;stroke:none"
         id="path28" /><path
         d="m 1968.17,1263.95 c -194.47,-163.33 -485.53,-11.58 -776.12,175 -327.538,210.3 -430.937,462.69 -588.972,396.02 C 320.41,1715.74 1427.39,1212.28 1171.3,1105.62 915.219,998.949 883.375,1273.95 760.188,1402.28 636.996,1530.62 408.652,1408.95 725.367,1066.4 1042.08,723.852 950.738,451.629 950.738,451.629 H 2409.63 c 57.68,129.91 -246.99,975.651 -441.46,812.321"
         style="fill:#f3f2f1;fill-opacity:1;fill-rule:nonzero;stroke:none"
         id="path30" /><path
         d="M 4438.89,113.238 C 4438.89,50.6992 3570.83,0 2500,0 1429.18,0 561.109,50.6992 561.109,113.238 c 0,62.532 868.071,113.231 1938.891,113.231 1070.83,0 1938.89,-50.699 1938.89,-113.231"
         style="fill:#f3f2f1;fill-opacity:1;fill-rule:nonzero;stroke:none"
         id="path32" /><path
         d="m 3105.4,1282.49 9.4,114.34 c 1.88,22.82 -0.39,45.02 -6.17,65.86 20,-13.19 35.68,-38.37 37.62,-76.22 0.94,-18.41 -0.22,-36.69 -2.32,-54.88 -11.19,-15.86 -24.14,-32.26 -38.53,-49.1"
         style="fill:#e5effa;fill-opacity:1;fill-rule:nonzero;stroke:none"
         id="path34" /><path
         d="m 3217.82,451.328 c -0.42,0.102 -0.84,0.203 -1.25,0.301 h 1.46 c -0.07,-0.098 -0.14,-0.199 -0.21,-0.301"
         style="fill:#d1dbea;fill-opacity:1;fill-rule:nonzero;stroke:none"
         id="path36" /><path
         d="m 3218.03,451.629 h -1.46 c -15.34,3.832 -28.09,10.301 -34.56,19.391 -13.7,19.261 3.96,42.23 8.13,61.82 4.94,23.23 4.02,47.269 -6.92,69.738 -6.33,13.004 -16.36,25.66 -32.49,34.242 -16.28,8.649 -36.14,12.2 -56.53,12.2 -13.81,0 -27.86,-1.629 -41.21,-4.411 l 52.41,637.881 c 14.39,16.84 27.34,33.24 38.53,49.1 -3.73,-32.25 -10.42,-64.22 -13.59,-96.16 -2.53,-25.52 9.81,-30.04 22.26,-30.04 2.81,0 5.62,0.23 8.27,0.5 69.02,7.05 130.15,76.64 184.14,148.98 64.3,86.16 135.47,197.96 223.27,201.2 1.73,0.06 3.56,0.1 5.45,0.1 20.36,0 48.91,-4.57 59.85,-32.88 6.49,-16.79 5.01,-39.13 0.46,-57.97 -17.81,-73.84 -70.3,-111.98 -109.78,-148.44 -106.6,-98.44 -206.01,-218.13 -295.23,-355.419 -12.76,-19.641 -25.79,-52.922 -13.7,-72.609 4.8,-7.813 11.98,-9.711 18.99,-9.711 1.17,0 2.33,0.058 3.48,0.14 41.27,3.168 79.55,36.028 117.72,63.239 27.49,19.589 58.31,38.07 88.58,38.07 10.67,0 21.28,-2.301 31.65,-7.649 20.95,-10.812 39.59,-34.382 49.03,-66.57 6.68,-22.812 8.53,-50.019 3.35,-74.351 -14.48,-67.879 -77.25,-98.461 -111.77,-131.942 -45.42,-44.066 -89.03,-93.406 -129.57,-148.887 -23.48,-32.132 -45.9,-66.261 -68.76,-99.562"
         style="fill:#dce6f6;fill-opacity:1;fill-rule:nonzero;stroke:none"
         id="path38" /><path
         d="m 1777.73,646.309 c -12.71,13.863 -23.45,28.511 -32.57,43.621 -9.32,15.441 -12.74,32.109 -23.03,47.441 -8.83,13.141 -21.93,25.418 -40.2,33.277 -16.51,7.102 -40.25,10.711 -65.08,10.711 -51.85,0 -108.47,-15.73 -114.13,-48.199 -1.6,-9.18 -0.62,-18.64 1.7,-28.121 -7.21,3.82 -14.36,7.922 -21.44,12.383 -26.77,16.898 -52.56,39.367 -74.03,70.41 -17.5,25.309 -44.46,72.797 -35.92,115.699 5.14,25.5 23.44,30.418 37.99,30.641 0.9,0.019 1.81,0.019 2.7,0.019 84.61,0 163.78,-59.851 237.69,-124.07 11.59,-10.07 23.9,-20.41 36.64,-20.41 5.36,0 10.79,1.828 16.28,6.289 4.81,3.91 9.4,9.77 11.96,18.172 3.36,10.976 2.69,24.758 -0.35,35.66 -3.04,10.887 -8.16,19.289 -13.58,26.43 -32.22,42.488 -71.6,62.918 -103.44,106.808 -16.71,23.04 -31.61,50.37 -44.15,80.99 -10.35,25.28 -29.56,65.94 -22.01,100.38 6.12,27.91 22.27,35.11 37.78,35.11 7.22,0 14.3,-1.56 20.16,-3.32 58.49,-17.51 113.05,-59.22 162.73,-111.13 18.95,-19.8 37.26,-41.05 55.16,-63.22 l -30.86,-375.571"
         style="fill:#dce6f6;fill-opacity:1;fill-rule:nonzero;stroke:none"
         id="path40" /><path
         d="m 3351.21,1711.95 c -40.28,12.51 -81.26,25.12 -122.58,38.37 15.75,51.46 35.75,95.19 58.99,125.59 5.44,-0.13 10.88,-0.2 16.3,-0.2 41.31,0 82,3.72 121.21,10.77 20.17,-40.64 -20.92,-109.54 -73.92,-174.53"
         style="fill:#e5effa;fill-opacity:1;fill-rule:nonzero;stroke:none"
         id="path42" /><path
         d="m 3254.38,1624.86 c -25.8,0 -50.25,23.16 -43.93,53.75 5.19,25.08 11.28,49.14 18.18,71.71 41.32,-13.25 82.3,-25.86 122.58,-38.37 -20.98,-25.73 -43.82,-50.85 -65.47,-73.35 -9.19,-9.56 -20.4,-13.74 -31.36,-13.74"
         style="fill:#dce6f6;fill-opacity:1;fill-rule:nonzero;stroke:none"
         id="path44" /><path
         d="m 3303.92,1875.71 c -5.42,0 -10.86,0.07 -16.3,0.2 22.06,28.86 47.05,45.7 74.07,45.7 15.24,0 31.12,-5.35 47.5,-16.93 7.26,-5.13 12.5,-11.25 15.94,-18.2 -39.21,-7.05 -79.9,-10.77 -121.21,-10.77"
         style="fill:#dce6f6;fill-opacity:1;fill-rule:nonzero;stroke:none"
         id="path46" /><path
         d="m 1637.9,1736.48 c -92.28,71.66 -156.82,169.77 -90.99,195.15 3.23,1.24 6.37,1.83 9.41,1.83 55.71,0 81.58,-196.98 81.58,-196.98"
         style="fill:#e5effa;fill-opacity:1;fill-rule:nonzero;stroke:none"
         id="path48" /><path
         d="m 3108.63,1462.69 c -6.96,4.59 -14.44,7.73 -22.04,9.44 -10.22,24.58 -26.63,46.57 -48.23,63.69 l -25.09,19.88 c 17.6,-5.57 35.47,-11.21 53.54,-16.96 19.44,-21.56 33.92,-47.54 41.82,-76.05"
         style="fill:#b8d2ef;fill-opacity:1;fill-rule:nonzero;stroke:none"
         id="path50" /><path
         d="m 3066.81,1538.74 c -18.07,5.75 -35.94,11.39 -53.54,16.96 l -10.17,8.06 40.61,-3.34 v 0 c 8.3,-6.58 16.03,-13.84 23.1,-21.68"
         style="fill:#b0caec;fill-opacity:1;fill-rule:nonzero;stroke:none"
         id="path52" /><path
         d="m 3086.96,1261.5 11.23,136.69 c 2.11,25.65 -2.03,50.93 -11.6,73.94 7.6,-1.71 15.08,-4.85 22.04,-9.44 5.78,-20.84 8.05,-43.04 6.17,-65.86 l -9.4,-114.34 c -5.9,-6.92 -12.07,-13.94 -18.44,-20.99"
         style="fill:#a9c7eb;fill-opacity:1;fill-rule:nonzero;stroke:none"
         id="path54" /><path
         d="m 3035.92,640.32 51.04,621.18 c 6.37,7.05 12.54,14.07 18.44,20.99 l -52.41,-637.881 c -5.86,-1.23 -11.57,-2.668 -17.07,-4.289"
         style="fill:#a3c1e9;fill-opacity:1;fill-rule:nonzero;stroke:none"
         id="path56" /><path
         d="m 3146.1,1777.68 c -5.41,1.86 -10.85,3.75 -16.26,5.65 l 9.27,112.79 c 5.46,-1.39 10.91,-2.7 16.39,-3.95 l -9.4,-114.49 m -1273.03,21.03 c 0,5.17 0.21,10.37 0.64,15.61 l 26.04,316.89 c 5.17,-1.22 10.32,-2.47 15.47,-3.77 -10.6,-10.99 -17.92,-26.06 -19.48,-45.08 l -22.03,-268.04 c -0.43,-5.24 -0.64,-10.44 -0.64,-15.61 m 858.84,906.88 c -31.46,0 -64.84,1.2 -100.1,4.09 -28.62,2.36 -56.76,6.18 -84.26,11.02 v 417.32 l 341.66,-28.07 -2.27,-27.54 c -2.78,-33.95 8.87,-67.5 32.1,-92.42 l 99.64,-106.83 c -5.25,-3.27 -10.48,-6.58 -15.65,-9.91 l -89.03,95.46 c 0,0 -134.29,-5.84 -29.65,-170.52 1.96,-3.08 3.94,-6.08 5.96,-9 -29.72,-25.83 -56.77,-52.95 -80.69,-81.22 -24.44,-1.48 -50.34,-2.38 -77.71,-2.38 m -186.86,15.55 c -40.85,7.29 -80.3,16.79 -117.84,27.01 v 399.76 l 117.84,-9.68 v -417.09 m -120.34,27.69 c -44.23,12.1 -85.77,25.15 -123.86,36.68 -62.14,18.82 -115.04,33.6 -155.2,33.6 -19.87,0 -36.62,-3.61 -49.82,-12.15 0.01,0 0.03,-0.02 0.04,-0.02 -0.01,0 -0.02,-0.01 -0.02,-0.01 -14.56,-11.22 -27.69,-23.96 -39.23,-37.92 -12.94,15.79 -25.93,31.45 -38.88,46.84 12.51,14.03 26.39,26.97 41.51,38.61 l 241.92,186.31 c 26.98,20.78 43.96,51.98 46.75,85.94 l 4.59,55.83 v 0 l -2.32,-28.3 74.52,-6.12 v -399.29"
         style="fill:#b8d2ef;fill-opacity:1;fill-rule:nonzero;stroke:none"
         id="path58" /><path
         d="m 2427.21,2748.15 c -0.84,0.23 -1.67,0.45 -2.5,0.68 v 399.29 l 2.5,-0.21 v -399.76"
         style="fill:#a8c3e9;fill-opacity:1;fill-rule:nonzero;stroke:none"
         id="path60" /><path
         d="m 2547.55,2720.7 c -0.84,0.14 -1.67,0.29 -2.5,0.44 v 417.09 l 2.5,-0.21 V 2720.7"
         style="fill:#a8c3e9;fill-opacity:1;fill-rule:nonzero;stroke:none"
         id="path62" /><path
         d="m 3140.55,1710.22 -16.6,1.36 5.89,71.75 c 5.41,-1.9 10.85,-3.79 16.26,-5.65 l -5.55,-67.46 v 0 m -1225.33,417.22 c -5.15,1.3 -10.3,2.55 -15.47,3.77 l 41.63,506.62 c 5.47,66.56 32.57,128.93 76.36,178.02 12.95,-15.39 25.94,-31.05 38.88,-46.84 -31.66,-38.31 -51.3,-85.82 -55.43,-136.1 l -39.76,-483.83 c -17.23,-1.62 -33.92,-8.89 -46.21,-21.64"
         style="fill:#b0caec;fill-opacity:1;fill-rule:nonzero;stroke:none"
         id="path64" /><path
         d="m 3155.5,1892.17 c -5.48,1.25 -10.93,2.56 -16.39,3.95 l 49.36,600.76 c 1.74,21.1 -13.96,39.62 -35.06,41.35 -1.07,0.09 -2.13,0.13 -3.18,0.13 -0.62,0 -1.23,-0.01 -1.83,-0.04 l 0.02,0.32 c 4.95,60.22 -12.7,120.14 -48.84,167.92 15.3,8.97 24.06,22.55 22.68,38.86 l -119.23,127.83 c 5.17,3.33 10.4,6.64 15.65,9.91 L 3127.3,2766.7 c 58.58,-62.8 87.95,-147.39 80.92,-232.97 l -52.72,-641.56 m -345.88,815.8 c 23.92,28.27 50.97,55.39 80.69,81.22 20.15,-29.17 43.29,-50.64 66.98,-65.66 -11.01,-1.47 -22.63,-3.02 -34.85,-4.58 -33.19,-4.22 -70.83,-8.44 -112.82,-10.98"
         style="fill:#b0caec;fill-opacity:1;fill-rule:nonzero;stroke:none"
         id="path66" /><path
         d="m 2889.21,3109.95 v 0 l 2.32,28.3 v 0 l -2.32,-28.3"
         style="fill:#b8d2ef;fill-opacity:1;fill-rule:nonzero;stroke:none"
         id="path68" /><path
         d="m 2889.21,3109.95 -341.66,28.07 v 28.49 l 343.21,-28.21 c 0.26,-0.01 0.52,-0.03 0.77,-0.05 l -2.32,-28.3 m -344.16,28.28 -117.84,9.68 v 28.48 l 117.84,-9.68 v -28.48 m -120.34,9.89 -74.52,6.12 2.32,28.3 c 0.26,-0.02 0.51,-0.05 0.77,-0.07 l 71.43,-5.87 v -28.48"
         style="fill:#8cb2e3;fill-opacity:1;fill-rule:nonzero;stroke:none"
         id="path70" /><path
         d="m 2427.21,3147.91 -2.5,0.21 v 28.48 l 2.5,-0.21 v -28.48"
         style="fill:#82a9de;fill-opacity:1;fill-rule:nonzero;stroke:none"
         id="path72" /><path
         d="m 2547.55,3138.02 -2.5,0.21 v 28.48 l 2.5,-0.2 v -28.49"
         style="fill:#82a9de;fill-opacity:1;fill-rule:nonzero;stroke:none"
         id="path74" /><path
         d="m 2890.31,2789.19 c -2.02,2.92 -4,5.92 -5.96,9 -104.64,164.68 29.65,170.52 29.65,170.52 l 89.03,-95.46 c -40.65,-26.19 -78.46,-54.28 -112.72,-84.06"
         style="fill:#cbdff4;fill-opacity:1;fill-rule:nonzero;stroke:none"
         id="path76" /><path
         d="m 3099.58,2706.56 c -5.03,6.65 -10.42,13.07 -16.16,19.22 -0.01,0 -0.03,0.01 -0.04,0.02 0.01,0.01 0.02,0.01 0.02,0.01 -9.17,4.67 -21.61,6.52 -37.25,6.52 -17.71,0 -39.53,-2.37 -65.36,-5.7 -7.49,-0.96 -15.33,-2.01 -23.5,-3.1 -23.69,15.02 -46.83,36.49 -66.98,65.66 34.26,29.78 72.07,57.87 112.72,84.06 l 119.23,-127.83 c 1.38,-16.31 -7.38,-29.89 -22.68,-38.86"
         style="fill:#c7d9f2;fill-opacity:1;fill-rule:nonzero;stroke:none"
         id="path78" /><path
         d="M 2390.22,664.762 C 2371.97,736.629 2345.3,818 2313.29,897.621 h 56.85 c 31.46,0 57.07,25.598 57.07,57.078 v 656.381 l 117.84,-9.68 v -433.37 c -35.61,-0.02 -65.83,-27.37 -68.81,-63.48 -3.12,-38.06 25.2,-71.45 63.25,-74.57 1.87,-0.16 3.72,-0.24 5.56,-0.24 v -75.041 c 0,-17.078 7.54,-32.429 19.46,-42.898 -31.01,-103.012 -85.03,-188.77 -150.07,-233.321 -7.77,-5.32 -15.9,-9.949 -24.22,-13.718 m -20.08,235.359 h -57.86 c -27.4,67.879 -58.68,134.419 -91.87,192.519 l -98.14,543.5 302.44,-24.85 V 954.699 c 0,-30.097 -24.49,-54.578 -54.57,-54.578 m 195.16,14.32 c -10.9,9.989 -17.75,24.34 -17.75,40.258 v 75.081 c 16.23,0.54 31.24,6.76 42.89,16.86 -0.71,-7.03 -1.46,-14.04 -2.28,-20.96 -4.59,-38.442 -12.36,-75.84 -22.86,-111.239 m 137.4,33.618 c -5.18,0 -10.26,1.132 -14.91,4.531 -27.2,19.871 -16.61,83.63 -6.98,117.59 5.57,19.68 12.01,39.04 14.94,60.09 2.93,21.04 1.84,44.68 -6.46,61.01 -7.09,13.92 -16.86,19.68 -27.2,19.68 -18.35,0 -38.47,-18.15 -48.45,-41.07 -4.5,-10.33 -7.98,-21.4 -10.75,-32.97 -11.29,17.12 -30.05,29.06 -52.07,30.87 -1.1,0.09 -2.19,0.15 -3.27,0.19 v 433.21 l 379.14,-31.15 v 0 l 35.26,-27.94 c 31.73,-25.15 52.26,-60.83 58.42,-99.75 -8.54,-14.04 -15.1,-32.16 -19.92,-51.24 -7.17,-28.39 -9.81,-59.15 -16.33,-87.73 -11.19,-48.96 -25.63,-95.33 -44.58,-136.07 -22.59,-48.55 -50.12,-91.37 -80.97,-126.09 -18.63,-17.02 -37.15,-33.97 -55.33,-50.79 -28.12,-20.461 -57.88,-34.508 -88.38,-40.848 -4.01,-0.832 -8.12,-1.523 -12.16,-1.523 m 85.8,475.231 c -14.76,0 -27.29,-11.33 -28.51,-26.29 -1.3,-15.77 10.43,-29.59 26.19,-30.89 0.8,-0.07 1.59,-0.1 2.38,-0.1 14.75,0 27.28,11.33 28.51,26.3 1.29,15.76 -10.43,29.59 -26.2,30.89 -0.79,0.06 -1.59,0.09 -2.37,0.09"
         style="fill:#8cb2e3;fill-opacity:1;fill-rule:nonzero;stroke:none"
         id="path80" /><path
         d="m 2370.14,897.621 h -56.85 c -0.33,0.828 -0.67,1.668 -1.01,2.5 h 57.86 c 30.08,0 54.57,24.481 54.57,54.578 v 656.591 l 2.5,-0.21 V 954.699 c 0,-31.48 -25.61,-57.078 -57.07,-57.078"
         style="fill:#82a9de;fill-opacity:1;fill-rule:nonzero;stroke:none"
         id="path82" /><path
         d="m 2564.51,911.801 c -11.92,10.469 -19.46,25.82 -19.46,42.898 v 75.041 c 0.06,0 0.12,0 0.18,0 0.78,0 1.55,0.01 2.32,0.04 v -75.081 c 0,-15.918 6.85,-30.269 17.75,-40.258 -0.26,-0.882 -0.52,-1.761 -0.79,-2.64 m -16.96,256.179 c -0.83,0.03 -1.65,0.05 -2.47,0.05 -0.01,0 -0.02,0 -0.03,0 v 433.37 l 2.5,-0.21 v -433.21"
         style="fill:#82a9de;fill-opacity:1;fill-rule:nonzero;stroke:none"
         id="path84" /><path
         d="m 2803.24,990.43 c 18.18,16.82 36.7,33.77 55.33,50.79 -17.47,-19.67 -36.01,-36.74 -55.33,-50.79"
         style="fill:#88aee0;fill-opacity:1;fill-rule:nonzero;stroke:none"
         id="path86" /><path
         d="m 2342.03,653.5 c -15.67,0 -30.91,3.949 -44.63,12.809 l -9.18,50.812 c 3.48,0.77 7.09,1.168 10.77,1.168 1.38,0 2.77,-0.059 4.17,-0.168 13.42,-1.109 25.62,-7.371 34.33,-17.641 8.71,-10.281 12.9,-23.332 11.8,-36.75 -0.29,-3.48 -0.92,-6.851 -1.86,-10.07 -1.8,-0.101 -3.6,-0.16 -5.4,-0.16 m 13.36,0.922 c 0.67,2.816 1.13,5.719 1.38,8.687 1.27,15.422 -3.55,30.422 -13.56,42.223 -10.01,11.797 -24.01,19 -39.44,20.258 -1.59,0.129 -3.18,0.199 -4.75,0.199 -4.14,0 -8.2,-0.449 -12.13,-1.301 l -66.48,368.152 c 33.19,-58.1 64.47,-124.64 91.87,-192.519 0.34,-0.832 0.68,-1.672 1.01,-2.5 32.01,-79.621 58.68,-160.992 76.93,-232.859 -11.4,-5.18 -23.15,-8.75 -34.83,-10.34"
         style="fill:#88aee0;fill-opacity:1;fill-rule:nonzero;stroke:none"
         id="path88" /><path
         d="M 2804.64,365.441 2493.3,391.02 c -35.44,16.402 -66.49,36.109 -91.71,58.109 h 468.2 c -6.99,-27.02 -20.41,-54.77 -51.77,-75.899 -4.2,-2.832 -8.67,-5.421 -13.38,-7.789 m -237.97,86.188 h -157.04 c 14.84,33.43 5.68,114.293 -19.41,213.133 8.32,3.769 16.45,8.398 24.22,13.718 65.04,44.551 119.06,130.309 150.07,233.321 10.05,-8.821 23.22,-14.18 37.61,-14.18 h 104.22 c -48.98,-49.34 -89.66,-95.73 -114.12,-136.59 C 2450,523.391 2566.67,451.629 2566.67,451.629 m 142.15,448.492 h -106.7 c -14.17,0 -27.1,5.43 -36.82,14.32 10.5,35.399 18.27,72.797 22.86,111.239 0.82,6.92 1.57,13.93 2.28,20.96 13.18,11.43 22.08,27.82 23.62,46.58 1.32,16.03 -2.95,31.24 -11.17,43.7 2.77,11.57 6.25,22.64 10.75,32.97 9.98,22.92 30.1,41.07 48.45,41.07 10.34,0 20.11,-5.76 27.2,-19.68 8.3,-16.33 9.39,-39.97 6.46,-61.01 -2.93,-21.05 -9.37,-40.41 -14.94,-60.09 -9.63,-33.96 -20.22,-97.719 6.98,-117.59 4.65,-3.399 9.73,-4.531 14.91,-4.531 4.04,0 8.15,0.691 12.16,1.523 30.5,6.34 60.26,20.387 88.38,40.848 -33.22,-30.75 -65.27,-61.059 -94.42,-90.309 m 149.75,141.099 c 30.85,34.72 58.38,77.54 80.97,126.09 18.95,40.74 33.39,87.11 44.58,136.07 6.52,28.58 9.16,59.34 16.33,87.73 4.82,19.08 11.38,37.2 19.92,51.24 1.95,-12.37 2.46,-25.08 1.41,-37.88 l -18.83,-229.11 c -45.5,-44.04 -95.26,-89.27 -144.38,-134.14"
         style="fill:#84ace0;fill-opacity:1;fill-rule:nonzero;stroke:none"
         id="path90" /><path
         d="m 2869.79,449.129 h -468.2 c -0.95,0.832 -1.9,1.672 -2.83,2.5 h 10.87 v 0 h 157.04 v 0 h 303.74 c -0.2,-0.828 -0.41,-1.66 -0.62,-2.5"
         style="fill:#7aa4dc;fill-opacity:1;fill-rule:nonzero;stroke:none"
         id="path92" /><path
         d="m 2706.34,897.621 h -104.22 c -14.39,0 -27.56,5.359 -37.61,14.18 0.27,0.879 0.53,1.758 0.79,2.64 9.72,-8.89 22.65,-14.32 36.82,-14.32 h 106.7 c -0.84,-0.84 -1.65,-1.66 -2.48,-2.5"
         style="fill:#7aa4dc;fill-opacity:1;fill-rule:nonzero;stroke:none"
         id="path94" /><path
         d="m 2870.41,451.629 h -303.74 v 0 c 0,0 -116.67,71.762 25.55,309.402 24.46,40.86 65.14,87.25 114.12,136.59 0.83,0.84 1.64,1.66 2.48,2.5 29.15,29.25 61.2,59.559 94.42,90.309 19.32,14.05 37.86,31.12 55.33,50.79 49.12,44.87 98.88,90.1 144.38,134.14 l -47.73,-580.938 c -1.85,-1.652 -3.67,-3.313 -5.44,-4.992 -42.18,-39.75 -67.71,-87.789 -78.82,-135.52 -0.18,-0.762 -0.36,-1.519 -0.55,-2.281 m -43.02,368.691 c -50.37,0 -93.14,-38.679 -97.34,-89.781 -4.42,-53.82 35.62,-101.027 89.45,-105.449 2.72,-0.231 5.43,-0.34 8.11,-0.34 50.37,0 93.15,38.691 97.34,89.781 4.42,53.821 -35.62,101.028 -89.44,105.461 -2.72,0.219 -5.43,0.328 -8.12,0.328"
         style="fill:#80a8de;fill-opacity:1;fill-rule:nonzero;stroke:none"
         id="path96" /><path
         d="m 2409.63,451.629 h -10.87 c -31.15,27.859 -53.03,59.25 -62.85,92.152 -7.12,23.828 -12.04,48.129 -26.67,67.039 22.42,4.032 40.79,21.102 46.15,43.602 11.68,1.59 23.43,5.16 34.83,10.34 25.09,-98.84 34.25,-179.703 19.41,-213.133 v 0 m -103.49,166.293 -8.74,48.387 c 13.72,-8.86 28.96,-12.809 44.63,-12.809 1.8,0 3.6,0.059 5.4,0.16 -5.53,-18.941 -21.75,-32.98 -41.29,-35.738"
         style="fill:#80a8de;fill-opacity:1;fill-rule:nonzero;stroke:none"
         id="path98" /><path
         d="m 2504.78,1762.46 -77.57,6.37 v 45.42 c 25.66,-18.64 51.48,-35.82 77.57,-51.79 m -80.07,6.58 -331.36,27.23 -52.49,290.68 c 91.86,-36.9 179.23,-89.83 258.17,-165.34 41.7,-39.88 83.47,-74.7 125.68,-105.54 v -47.03 m 630.46,41.76 c -182.61,70.65 -362.07,168.21 -507.62,338.63 v 0 216.51 c 8.31,9.26 13.13,21.67 12.48,35.08 -0.57,11.72 -5.2,22.27 -12.48,30.36 v 239.9 c 25.81,-3.1 52.59,-5.79 80.39,-8.08 24.35,-2 48.62,-2.9 72.51,-2.9 25.35,0 50.29,1.01 74.56,2.78 -85.55,-122.57 -112.64,-264.04 -48.06,-415.62 -2.99,0.82 -6.08,1.36 -9.25,1.62 -1.39,0.12 -2.77,0.17 -4.16,0.17 -11.83,0 -23.26,-4.15 -32.42,-11.91 -10.23,-8.68 -16.46,-20.82 -17.57,-34.18 -2.26,-27.59 18.34,-51.88 45.94,-54.15 1.4,-0.12 2.79,-0.17 4.19,-0.17 11.87,0 23.23,4.16 32.39,11.92 6.64,5.63 11.59,12.72 14.55,20.65 10.16,-17.1 21.48,-34.28 34.05,-51.58 74.22,-102.17 168.54,-169.93 269.49,-209.59 l -8.99,-109.44 m -510.12,341.56 c -39.55,46.38 -78.78,94.46 -117.84,143.51 v 394.1 c 37.06,-7.2 76.22,-13.33 117.84,-18.39 v -237.61 c -8.83,8.48 -20.82,13.66 -33.89,13.66 -0.8,0 -1.6,-0.02 -2.4,-0.06 -27.02,-1.3 -47.86,-24.26 -46.55,-51.27 1.26,-26.21 22.91,-46.61 48.87,-46.61 0.8,0 1.6,0.02 2.4,0.06 12.31,0.59 23.34,5.68 31.57,13.6 v -210.99 m 168.63,3.98 c -1.19,0 -2.38,0.05 -3.58,0.14 -23.47,1.93 -41,22.6 -39.06,46.06 0.92,11.37 6.23,21.7 14.94,29.08 7.78,6.6 17.45,10.14 27.55,10.14 1.18,0 2.37,-0.05 3.57,-0.15 4.9,-0.4 9.61,-1.62 13.98,-3.57 7.1,-15.79 15.2,-31.69 24.33,-47.68 -1.91,-9.3 -6.84,-17.64 -14.19,-23.88 -7.79,-6.61 -17.42,-10.14 -27.54,-10.14 m -288.97,142.67 c -124.04,155.92 -246.01,321.09 -368.09,470 11.54,13.96 24.67,26.7 39.23,37.92 0,0 0.01,0.01 0.02,0.01 94.82,-52.27 198.96,-91.01 328.84,-116.48 v -391.45 m -153.23,406.95 c -9.99,0 -18.72,-7.77 -19.58,-18.01 v -0.01 c -0.87,-10.78 7.18,-20.27 17.96,-21.16 l 1.62,-0.06 c 10.09,0 18.7,7.77 19.54,18.01 0.88,10.78 -7.17,20.28 -17.95,21.16 -0.54,0.05 -1.06,0.07 -1.59,0.07 m 0.03,-31.74 c -0.35,0 -0.69,0.01 -1.04,0.04 -6.65,0.55 -11.63,6.41 -11.09,13.07 0.53,6.33 5.76,11.13 12.06,11.13 0.34,0 0.68,-0.02 1.02,-0.04 6.65,-0.55 11.63,-6.42 11.08,-13.07 -0.51,-6.32 -5.75,-11.13 -12.03,-11.13"
         style="fill:#8cb2e3;fill-opacity:1;fill-rule:nonzero;stroke:none"
         id="path100" /><path
         d="m 2427.21,1768.83 -2.5,0.21 v 47.03 c 0.84,-0.61 1.66,-1.21 2.5,-1.82 v -45.42 m 0,527.04 c -0.83,1.04 -1.68,2.11 -2.5,3.14 v 391.45 c 0.83,-0.17 1.67,-0.33 2.5,-0.49 v -394.1"
         style="fill:#82a9de;fill-opacity:1;fill-rule:nonzero;stroke:none"
         id="path102" /><path
         d="m 2547.55,2149.43 c -0.84,0.98 -1.67,1.95 -2.5,2.93 v 210.99 c 0.86,0.83 1.7,1.7 2.5,2.59 v -216.51 m 0,281.95 c -0.8,0.9 -1.64,1.76 -2.5,2.59 v 237.61 c 0.84,-0.1 1.66,-0.2 2.5,-0.3 v -239.9"
         style="fill:#82a9de;fill-opacity:1;fill-rule:nonzero;stroke:none"
         id="path104" /><path
         d="m 3047.53,1717.86 -542.75,44.6 c -26.09,15.97 -51.91,33.15 -77.57,51.79 -0.84,0.61 -1.66,1.21 -2.5,1.82 -42.21,30.84 -83.98,65.66 -125.68,105.54 -78.94,75.51 -166.31,128.44 -258.17,165.34 l -0.44,2.41 c -7.3,40.44 -39.43,60.07 -71.59,60.07 -2.47,0 -4.94,-0.12 -7.4,-0.35 l 39.76,483.83 c 4.13,50.28 23.77,97.79 55.43,136.1 122.08,-148.91 244.05,-314.08 368.09,-470 0.82,-1.03 1.67,-2.1 2.5,-3.14 39.06,-49.05 78.29,-97.13 117.84,-143.51 0.83,-0.98 1.66,-1.95 2.5,-2.93 v 0 c 145.55,-170.42 325.01,-267.98 507.62,-338.63 l -7.64,-92.94 v 0 m -130.02,146.39 c -21.68,0 -40.09,-16.67 -41.89,-38.61 v -0.01 c -1.9,-23.11 15.37,-43.46 38.48,-45.36 1.17,-0.1 2.35,-0.14 3.52,-0.14 9.94,0 19.46,3.48 27.14,9.98 8.56,7.27 13.79,17.44 14.7,28.63 0.92,11.2 -2.58,22.09 -9.84,30.66 -7.27,8.56 -17.43,13.79 -28.63,14.71 -1.17,0.1 -2.33,0.14 -3.48,0.14 m -595.97,210.02 c -1.12,0 -2.26,-0.03 -3.39,-0.08 -38.2,-1.85 -67.68,-34.31 -65.83,-72.51 1.79,-37.07 32.4,-65.92 69.11,-65.92 1.13,0 2.26,0.03 3.4,0.09 38.2,1.84 67.67,34.3 65.83,72.51 -1.79,37.06 -32.4,65.91 -69.12,65.91 m 596.08,-286.65 c -0.97,0 -1.94,0.04 -2.91,0.12 -18.99,1.57 -33.18,18.29 -31.61,37.28 1.48,18.04 16.54,31.73 34.41,31.73 0.95,0 1.91,-0.04 2.87,-0.11 9.2,-0.76 17.55,-5.05 23.53,-12.09 5.96,-7.05 8.83,-15.99 8.07,-25.19 -0.75,-9.2 -5.04,-17.56 -12.08,-23.53 -6.29,-5.34 -14.1,-8.21 -22.28,-8.21"
         style="fill:#88aee0;fill-opacity:1;fill-rule:nonzero;stroke:none"
         id="path106" /><path
         d="m 3064.16,1920.24 c -100.95,39.66 -195.27,107.42 -269.49,209.59 -12.57,17.3 -23.89,34.48 -34.05,51.58 1.61,4.29 2.63,8.83 3.01,13.52 1.11,13.37 -3.06,26.36 -11.75,36.59 -6.62,7.81 -15.26,13.29 -24.93,15.94 -64.58,151.58 -37.49,293.05 48.06,415.62 91.28,6.64 172.84,24.01 229.12,38.79 15.97,-4.84 31.46,-7.06 45.68,-7.06 19.73,0 37.02,4.28 49.77,11.75 36.14,-47.78 53.79,-107.7 48.84,-167.92 l -0.02,-0.32 c -18.95,-0.9 -34.74,-15.74 -36.34,-35.16 l -47.9,-582.92 m -308.75,270.12 c -9.13,15.99 -17.23,31.89 -24.33,47.68 5.74,-2.57 10.89,-6.42 15.08,-11.37 7.38,-8.7 10.93,-19.75 9.99,-31.12 -0.14,-1.76 -0.39,-3.49 -0.74,-5.19"
         style="fill:#88aee0;fill-opacity:1;fill-rule:nonzero;stroke:none"
         id="path108" /><path
         d="m 2731.8,2705.55 c -31.45,0 -64.8,1.2 -100.04,4.09 -28.61,2.35 -56.72,6.17 -84.21,11.01 v 0.05 c 27.5,-4.84 55.64,-8.66 84.26,-11.02 35.26,-2.89 68.64,-4.09 100.1,-4.09 27.37,0 53.27,0.9 77.71,2.38 -0.01,-0.02 -0.01,-0.01 -0.02,-0.03 -24.47,-1.48 -50.41,-2.39 -77.8,-2.39 m -186.75,15.54 c -40.84,7.29 -80.31,16.81 -117.84,27.03 v 0.03 c 37.54,-10.22 76.99,-19.72 117.84,-27.01 v -0.05 m -120.34,27.71 c -44.23,12.11 -85.77,25.17 -123.86,36.71 38.09,-11.53 79.63,-24.58 123.86,-36.68 v -0.03"
         style="fill:#8cb2e3;fill-opacity:1;fill-rule:nonzero;stroke:none"
         id="path110" /><path
         d="m 2427.21,2748.12 c -0.84,0.23 -1.67,0.46 -2.5,0.68 v 0.03 c 0.83,-0.23 1.66,-0.45 2.5,-0.68 v -0.03"
         style="fill:#82a9de;fill-opacity:1;fill-rule:nonzero;stroke:none"
         id="path112" /><path
         d="m 2547.55,2720.65 c -0.84,0.15 -1.67,0.3 -2.5,0.44 v 0.05 c 0.83,-0.15 1.66,-0.3 2.5,-0.44 v -0.05"
         style="fill:#82a9de;fill-opacity:1;fill-rule:nonzero;stroke:none"
         id="path114" /><path
         d="m 2809.6,2707.94 c 0.01,0.02 0.01,0.01 0.02,0.03 41.99,2.54 79.63,6.76 112.82,10.98 12.22,1.56 23.84,3.11 34.85,4.58 h 0.01 c -11,-1.48 -22.62,-3.03 -34.84,-4.59 -33.2,-4.23 -70.86,-8.46 -112.86,-11"
         style="fill:#88aee0;fill-opacity:1;fill-rule:nonzero;stroke:none"
         id="path116" /><path
         d="m 3049.81,2694.81 c -14.22,0 -29.71,2.22 -45.68,7.06 48.52,12.75 78.25,23.56 79.25,23.93 0.01,-0.01 0.03,-0.02 0.04,-0.02 5.74,-6.15 11.13,-12.57 16.16,-19.22 -12.75,-7.47 -30.04,-11.75 -49.77,-11.75 m -92.51,28.72 h -0.01 c 8.17,1.09 16.01,2.14 23.5,3.1 -7.49,-0.96 -15.32,-2.01 -23.49,-3.1"
         style="fill:#96b8e5;fill-opacity:1;fill-rule:nonzero;stroke:none"
         id="path118" /><path
         d="m 2696.54,344.59 c -35.81,0 -72.8,4.851 -105.44,12.73 -35.15,8.489 -68.03,19.918 -97.8,33.7 l 311.34,-25.579 c -29.32,-14.75 -67.97,-20.839 -108.1,-20.851"
         style="fill:#749ed9;fill-opacity:1;fill-rule:nonzero;stroke:none"
         id="path120" /><path
         d="m 2300.85,2785.51 c -62.13,18.81 -115.03,33.57 -155.17,33.57 -19.87,0 -36.61,-3.61 -49.81,-12.14 -0.01,0 -0.03,0.02 -0.04,0.02 13.2,8.54 29.95,12.15 49.82,12.15 40.16,0 93.06,-14.78 155.2,-33.6"
         style="fill:#9bbde7;fill-opacity:1;fill-rule:nonzero;stroke:none"
         id="path122" /><path
         d="m 3083.38,2725.8 c -9.19,4.66 -21.64,6.51 -37.3,6.51 -17.69,0 -39.49,-2.36 -65.29,-5.68 25.83,3.33 47.65,5.7 65.36,5.7 15.64,0 28.08,-1.85 37.25,-6.52 0,0 -0.01,0 -0.02,-0.01"
         style="fill:#a6c3e9;fill-opacity:1;fill-rule:nonzero;stroke:none"
         id="path124" /><path
         d="m 2700.45,2660.3 c -23.89,0 -48.16,0.9 -72.51,2.9 -27.8,2.29 -54.58,4.98 -80.39,8.08 v 49.37 c 27.49,-4.84 55.6,-8.66 84.21,-11.01 35.24,-2.89 68.59,-4.09 100.04,-4.09 27.39,0 53.33,0.91 77.8,2.39 -12.39,-14.64 -23.95,-29.62 -34.59,-44.86 -24.27,-1.77 -49.21,-2.78 -74.56,-2.78 m -155.4,11.28 c -41.62,5.06 -80.78,11.19 -117.84,18.39 v 58.15 c 37.53,-10.22 77,-19.74 117.84,-27.03 v -49.51 m -120.34,18.88 c -129.88,25.47 -234.02,64.21 -328.84,116.48 13.2,8.53 29.94,12.14 49.81,12.14 40.14,0 93.04,-14.76 155.17,-33.57 38.09,-11.54 79.63,-24.6 123.86,-36.71 v -58.34"
         style="fill:#7ba4dc;fill-opacity:1;fill-rule:nonzero;stroke:none"
         id="path126" /><path
         d="m 2427.21,2689.97 c -0.83,0.16 -1.67,0.32 -2.5,0.49 v 58.34 c 0.83,-0.22 1.66,-0.45 2.5,-0.68 v -58.15"
         style="fill:#729cd8;fill-opacity:1;fill-rule:nonzero;stroke:none"
         id="path128" /><path
         d="m 2547.55,2671.28 c -0.84,0.1 -1.66,0.2 -2.5,0.3 v 49.51 c 0.83,-0.14 1.66,-0.29 2.5,-0.44 v -49.37"
         style="fill:#729cd8;fill-opacity:1;fill-rule:nonzero;stroke:none"
         id="path130" /><path
         d="m 2775.01,2663.08 c 10.64,15.24 22.2,30.22 34.59,44.86 42,2.54 79.66,6.77 112.86,11 12.22,1.56 23.84,3.11 34.84,4.59 15.6,-9.9 31.44,-16.99 46.83,-21.66 -56.28,-14.78 -137.84,-32.15 -229.12,-38.79"
         style="fill:#769fda;fill-opacity:1;fill-rule:nonzero;stroke:none"
         id="path132" /><path
         d="m 3004.13,2701.87 c -15.39,4.67 -31.23,11.76 -46.83,21.66 8.17,1.09 16,2.14 23.49,3.1 25.8,3.32 47.6,5.68 65.29,5.68 15.66,0 28.11,-1.85 37.3,-6.51 -1,-0.37 -30.73,-11.18 -79.25,-23.93"
         style="fill:#82a9de;fill-opacity:1;fill-rule:nonzero;stroke:none"
         id="path134" /><path
         d="m 3043.71,1560.42 -40.61,3.34 v 0 l 39.34,21.81 c 46.68,25.88 77.14,72.98 81.51,126.01 v 0 l 16.6,-1.36 c -5.37,-65.39 -43.47,-120.21 -96.84,-149.8 v 0 0"
         style="fill:#94b7e5;fill-opacity:1;fill-rule:nonzero;stroke:none"
         id="path136" /><path
         d="m 2926.69,1570.04 -379.14,31.15 v 136.27 c 122.26,-68.21 250.88,-113.12 394.24,-159.05 l -15.1,-8.37 m -381.64,31.36 -117.84,9.68 v 157.75 l 77.57,-6.37 c 13.35,-8.17 26.77,-16.03 40.27,-23.6 V 1601.4 m -120.34,9.89 -302.44,24.85 -28.92,160.13 331.36,-27.23 v -157.75"
         style="fill:#7ba4dc;fill-opacity:1;fill-rule:nonzero;stroke:none"
         id="path138" /><path
         d="m 2427.21,1611.08 -2.5,0.21 v 157.75 l 2.5,-0.21 v -157.75"
         style="fill:#729cd8;fill-opacity:1;fill-rule:nonzero;stroke:none"
         id="path140" /><path
         d="m 2547.55,1601.19 -2.5,0.21 v 137.46 c 0.83,-0.47 1.67,-0.94 2.5,-1.4 v -136.27"
         style="fill:#729cd8;fill-opacity:1;fill-rule:nonzero;stroke:none"
         id="path142" /><path
         d="m 2941.79,1578.41 c -143.36,45.93 -271.98,90.84 -394.24,159.05 -0.83,0.46 -1.67,0.93 -2.5,1.4 -13.5,7.57 -26.92,15.43 -40.27,23.6 l 542.75,-44.6 c -4.36,-53.03 -34.82,-100.14 -81.5,-126.01 l -24.24,-13.44"
         style="fill:#769fda;fill-opacity:1;fill-rule:nonzero;stroke:none"
         id="path144" /><path
         d="m 2973.99,3224.27 -9.96,0.82 6.52,79.32 c 1.44,17.55 -4.04,34.61 -15.42,48.04 -11.4,13.43 -27.34,21.61 -44.88,23.05 l -86.14,7.09 0.82,9.96 86.14,-7.08 c 20.21,-1.66 38.56,-11.09 51.67,-26.55 13.13,-15.46 19.44,-35.11 17.77,-55.32 l -6.52,-79.33"
         style="fill:#406fbf;fill-opacity:1;fill-rule:nonzero;stroke:none"
         id="path146" /><path
         d="m 2946.81,3124.61 -6.96,7.19 c 11.58,11.19 18.66,26.06 19.95,41.88 l 9.97,-0.82 c -1.5,-18.24 -9.65,-35.37 -22.96,-48.25"
         style="fill:#406fbf;fill-opacity:1;fill-rule:nonzero;stroke:none"
         id="path148" /><path
         d="m 2908.21,3350.59 -537.49,44.17 c -22.51,1.85 -42.27,-14.91 -44.12,-37.42 l -10.74,-130.75 c -1.85,-22.52 14.9,-42.27 37.42,-44.12 l 537.48,-44.17 c 22.52,-1.85 42.27,14.91 44.12,37.42 l 10.75,130.75 c 1.84,22.51 -14.91,42.27 -37.42,44.12"
         style="fill:#406fbf;fill-opacity:1;fill-rule:nonzero;stroke:none"
         id="path150" /><path
         d="m 2380.64,3202.48 -0.43,0.02 c -2.75,0.22 -4.79,2.64 -4.57,5.39 l 12.99,158.13 c 0.22,2.61 2.41,4.6 4.96,4.6 0.14,0 0.29,-0.01 0.43,-0.02 2.76,-0.22 4.8,-2.64 4.57,-5.39 l -12.98,-158.14 c -0.22,-2.61 -2.41,-4.59 -4.97,-4.59"
         style="fill:#5d87cd;fill-opacity:1;fill-rule:nonzero;stroke:none"
         id="path152" /><path
         d="m 2478.09,3194.48 -0.42,0.01 c -2.76,0.23 -4.8,2.64 -4.57,5.39 l 12.98,158.14 c 0.22,2.61 2.54,4.59 4.99,4.59 0.14,0 0.27,-0.01 0.4,-0.02 2.76,-0.23 4.8,-2.64 4.58,-5.39 l -12.99,-158.13 c -0.22,-2.62 -2.41,-4.59 -4.97,-4.59"
         style="fill:#5d87cd;fill-opacity:1;fill-rule:nonzero;stroke:none"
         id="path154" /><path
         d="m 2575.53,3186.47 -0.42,0.01 c -2.76,0.23 -4.8,2.65 -4.57,5.4 l 13,158.13 c 0.21,2.62 2.64,4.59 5.01,4.59 0.13,0 0.25,-0.01 0.37,-0.01 2.76,-0.23 4.8,-2.65 4.58,-5.4 l -13,-158.13 c -0.22,-2.61 -2.4,-4.59 -4.97,-4.59"
         style="fill:#5d87cd;fill-opacity:1;fill-rule:nonzero;stroke:none"
         id="path156" /><path
         d="m 2672.98,3178.46 -0.42,0.02 c -2.76,0.22 -4.8,2.64 -4.57,5.39 l 13,158.13 c 0.22,2.63 2.57,4.59 5,4.59 0.13,0 0.26,0 0.39,-0.02 2.75,-0.22 4.79,-2.64 4.57,-5.39 l -13,-158.13 c -0.22,-2.61 -2.4,-4.59 -4.97,-4.59"
         style="fill:#5d87cd;fill-opacity:1;fill-rule:nonzero;stroke:none"
         id="path158" /><path
         d="m 2770.43,3170.45 -0.42,0.02 c -2.75,0.23 -4.8,2.64 -4.57,5.39 l 13,158.14 c 0.21,2.62 2.67,4.59 5.02,4.59 0.12,0 0.25,-0.01 0.37,-0.02 2.75,-0.23 4.79,-2.64 4.57,-5.39 l -13,-158.14 c -0.21,-2.61 -2.4,-4.59 -4.97,-4.59"
         style="fill:#5d87cd;fill-opacity:1;fill-rule:nonzero;stroke:none"
         id="path160" /><path
         d="m 2867.88,3162.44 -0.42,0.02 c -2.75,0.23 -4.79,2.64 -4.57,5.39 l 12.99,158.13 c 0.21,2.61 2.47,4.6 4.97,4.6 0.14,0 0.28,-0.01 0.42,-0.02 2.75,-0.22 4.79,-2.64 4.57,-5.39 l -12.99,-158.13 c -0.21,-2.62 -2.4,-4.6 -4.97,-4.6"
         style="fill:#5d87cd;fill-opacity:1;fill-rule:nonzero;stroke:none"
         id="path162" /><path
         d="m 1808.59,1021.88 v 0 l 14.5,176.45 v 0 l -14.5,-176.45"
         style="fill:#c6d8f2;fill-opacity:1;fill-rule:nonzero;stroke:none"
         id="path164" /><path
         d="m 1777.73,646.309 v 0 l 30.86,375.571 v 0 l -30.86,-375.571"
         style="fill:#b4cded;fill-opacity:1;fill-rule:nonzero;stroke:none"
         id="path166" /><path
         d="m 1823.09,1198.33 24.87,302.6 c 5.37,65.38 43.47,120.2 96.85,149.79 v 0 0 0 l 107.77,-8.85 v 0 l -78.68,-43.62 c -37.87,-21 -62.6,-59.22 -66.14,-102.23 l -23.13,-281.58 c -19.85,-7.59 -40.38,-12.89 -61.54,-16.11"
         style="fill:#9bbde7;fill-opacity:1;fill-rule:nonzero;stroke:none"
         id="path168" /><path
         d="m 1862.97,950.859 c -17.84,24.25 -35.89,48.133 -54.38,71.021 l 14.5,176.45 c 21.16,3.22 41.69,8.52 61.54,16.11 l -21.66,-263.581"
         style="fill:#94b7e5;fill-opacity:1;fill-rule:nonzero;stroke:none"
         id="path170" /><path
         d="m 1834.05,598.949 c -8.46,5.699 -16.55,11.582 -24.24,17.633 -11.9,9.379 -22.55,19.34 -32.08,29.727 l 30.86,375.571 c 18.49,-22.888 36.54,-46.771 54.38,-71.021 l -28.92,-351.91"
         style="fill:#8ab1e2;fill-opacity:1;fill-rule:nonzero;stroke:none"
         id="path172" /><path
         d="m 2220.41,1092.64 c -63.73,111.57 -134.6,192.16 -199,192.16 -18.39,0 -36.22,-6.55 -53.24,-20.85 -26.17,-21.98 -54.11,-38.26 -83.54,-49.51 l 23.13,281.58 c 3.54,43.01 28.27,81.23 66.14,102.23 l 78.68,43.62 69.69,-5.73 98.14,-543.5"
         style="fill:#7ba4dc;fill-opacity:1;fill-rule:nonzero;stroke:none"
         id="path174" /><path
         d="m 2297.4,666.309 c -12.67,8.179 -24.05,20.55 -33.3,37.89 6.62,6.36 14.94,10.903 24.12,12.922 l 9.18,-50.812 m -36.8,44.812 c -19.13,39.949 -26.55,91.668 -30.14,141.32 -6.35,87.789 -22.29,175.939 -49.47,248.579 -11.74,31.36 -25.91,60.22 -43.57,80.38 -14.11,16.11 -32.38,27.36 -50.26,27.36 -13.87,0 -27.5,-6.77 -38.76,-23.3 -10.91,-16.03 -17.85,-39.51 -22.34,-63.55 -7.76,-41.55 -8.9,-85.86 -6.11,-128.578 2.34,-36.043 13.59,-78.113 4.06,-113.801 -7.84,-29.359 -28.23,-44.351 -48.09,-44.351 -4.65,0 -9.27,0.82 -13.69,2.468 -23.3,8.723 -42.31,34.532 -60.37,59.614 -12.91,17.918 -25.85,35.859 -38.89,53.597 l 21.66,263.581 c 29.43,11.25 57.37,27.53 83.54,49.51 17.02,14.3 34.85,20.85 53.24,20.85 64.4,0 135.27,-80.59 199,-192.16 l 66.48,-368.152 c -9.86,-2.129 -18.9,-6.816 -26.29,-13.367"
         style="fill:#769fda;fill-opacity:1;fill-rule:nonzero;stroke:none"
         id="path176" /><path
         d="m 2161.05,500.309 c -5.7,0 -11.46,0.312 -17.09,0.691 -119.85,8.07 -231.13,44.93 -309.91,97.949 l 28.92,351.91 c 13.04,-17.738 25.98,-35.679 38.89,-53.597 18.06,-25.082 37.07,-50.891 60.37,-59.614 4.42,-1.648 9.04,-2.468 13.69,-2.468 19.86,0 40.25,14.992 48.09,44.351 9.53,35.688 -1.72,77.758 -4.06,113.801 -2.79,42.718 -1.65,87.028 6.11,128.578 4.49,24.04 11.43,47.52 22.34,63.55 11.26,16.53 24.89,23.3 38.76,23.3 17.88,0 36.15,-11.25 50.26,-27.36 17.66,-20.16 31.83,-49.02 43.57,-80.38 27.18,-72.64 43.12,-160.79 49.47,-248.579 3.59,-49.652 11.01,-101.371 30.14,-141.32 -10.77,-9.562 -18.04,-23.09 -19.31,-38.519 v 0 c -0.87,-10.5 1.09,-20.801 5.58,-30.032 -4.1,0.391 -8.36,0.59 -12.66,0.59 -33.33,0 -69.54,-12.121 -58.3,-43.851 4.04,-11.387 13.37,-21.829 21.41,-32.45 13.88,-18.32 28.68,-52.808 -12.58,-63.91 -7.42,-2 -15.5,-2.64 -23.69,-2.64 m 142.27,117.293 c -8.92,9.058 -20.83,16.48 -37.41,21.449 -3,0.898 -6.29,1.668 -9.79,2.277 -5.66,9.121 -8.25,19.762 -7.35,30.652 1.04,12.739 6.76,24 15.33,32.219 9.25,-17.34 20.63,-29.711 33.3,-37.89 l 8.74,-48.387 c -0.94,-0.133 -1.87,-0.242 -2.82,-0.32"
         style="fill:#719bd8;fill-opacity:1;fill-rule:nonzero;stroke:none"
         id="path178" /><path
         d="m 1933.52,1809.4 -59.81,4.92 22.03,268.04 c 1.56,19.02 8.88,34.09 19.48,45.08 14.56,-3.65 29.04,-7.61 43.45,-11.9 l -25.15,-306.14 v 0"
         style="fill:#9bbde7;fill-opacity:1;fill-rule:nonzero;stroke:none"
         id="path180" /><path
         d="m 1958.67,2115.54 c -14.41,4.29 -28.89,8.25 -43.45,11.9 12.29,12.75 28.98,20.02 46.21,21.64 l -2.76,-33.54"
         style="fill:#94b7e5;fill-opacity:1;fill-rule:nonzero;stroke:none"
         id="path182" /><path
         d="m 2093.35,1796.27 -159.83,13.13 v 0 l 25.15,306.14 c 27.72,-8.26 55.15,-17.73 82.19,-28.59 l 52.49,-290.68"
         style="fill:#7ba4dc;fill-opacity:1;fill-rule:nonzero;stroke:none"
         id="path184" /><path
         d="m 2040.86,2086.95 c -27.04,10.86 -54.47,20.33 -82.19,28.59 l 2.76,33.54 c 2.46,0.23 4.93,0.35 7.4,0.35 32.16,0 64.29,-19.63 71.59,-60.07 l 0.44,-2.41"
         style="fill:#769fda;fill-opacity:1;fill-rule:nonzero;stroke:none"
         id="path186" /><path
         d="m 2052.58,1641.87 -107.77,8.85 v 0 0 c -44,34.87 -71.76,88.69 -71.74,147.99 0,5.17 0.21,10.37 0.64,15.61 v 0 l 59.81,-4.92 c -3.54,-43.02 14.61,-84.76 48.55,-111.65 l 70.51,-55.88"
         style="fill:#85ade0;fill-opacity:1;fill-rule:nonzero;stroke:none"
         id="path188" /><path
         d="m 2122.27,1636.14 -69.69,5.73 -70.51,55.88 c -33.94,26.89 -52.09,68.63 -48.55,111.65 l 159.83,-13.13 28.92,-160.13"
         style="fill:#6e98d6;fill-opacity:1;fill-rule:nonzero;stroke:none"
         id="path190" /><path
         d="m 2827.61,624.75 c -2.68,0 -5.39,0.109 -8.11,0.34 -53.83,4.422 -93.87,51.629 -89.45,105.449 4.2,51.102 46.97,89.781 97.34,89.781 2.69,0 5.4,-0.109 8.12,-0.328 53.82,-4.433 93.86,-51.64 89.44,-105.461 -4.19,-51.09 -46.97,-89.781 -97.34,-89.781"
         style="fill:#6b95d5;fill-opacity:1;fill-rule:nonzero;stroke:none"
         id="path192" /><path
         d="m 2545.05,1029.74 c -1.84,0 -3.69,0.08 -5.56,0.24 -38.05,3.12 -66.37,36.51 -63.25,74.57 2.98,36.11 33.2,63.46 68.81,63.48 v -138.29 m 2.5,0.04 v 138.2 c 1.08,-0.04 2.17,-0.1 3.27,-0.19 22.02,-1.81 40.78,-13.75 52.07,-30.87 -6.78,-28.32 -9.35,-59.61 -12.45,-90.28 -11.65,-10.1 -26.66,-16.32 -42.89,-16.86"
         style="fill:#739cd8;fill-opacity:1;fill-rule:nonzero;stroke:none"
         id="path194" /><path
         d="m 2545.23,1029.74 c -0.06,0 -0.12,0 -0.18,0 v 138.29 c 0.01,0 0.02,0 0.03,0 0.82,0 1.64,-0.02 2.47,-0.05 v -138.2 c -0.77,-0.03 -1.54,-0.04 -2.32,-0.04"
         style="fill:#6c96d5;fill-opacity:1;fill-rule:nonzero;stroke:none"
         id="path196" /><path
         d="m 2590.44,1046.64 c 3.1,30.67 5.67,61.96 12.45,90.28 8.22,-12.46 12.49,-27.67 11.17,-43.7 -1.54,-18.76 -10.44,-35.15 -23.62,-46.58"
         style="fill:#6d97d6;fill-opacity:1;fill-rule:nonzero;stroke:none"
         id="path198" /><path
         d="m 2321.43,1935.76 c -36.71,0 -67.32,28.85 -69.11,65.92 -1.85,38.2 27.63,70.66 65.83,72.51 1.13,0.05 2.27,0.08 3.39,0.08 36.72,0 67.33,-28.85 69.12,-65.91 1.84,-38.21 -27.63,-70.67 -65.83,-72.51 -1.14,-0.06 -2.27,-0.09 -3.4,-0.09"
         style="fill:#6f98d6;fill-opacity:1;fill-rule:nonzero;stroke:none"
         id="path200" /><path
         d="m 2511.08,2349.69 c -25.96,0 -47.61,20.4 -48.87,46.61 -1.31,27.01 19.53,49.97 46.55,51.27 0.8,0.04 1.6,0.06 2.4,0.06 13.07,0 25.06,-5.18 33.89,-13.66 v -70.62 c -8.23,-7.92 -19.26,-13.01 -31.57,-13.6 -0.8,-0.04 -1.6,-0.06 -2.4,-0.06 m 36.47,16.25 v 65.44 c 7.28,-8.09 11.91,-18.64 12.48,-30.36 0.65,-13.41 -4.17,-25.82 -12.48,-35.08"
         style="fill:#739cd8;fill-opacity:1;fill-rule:nonzero;stroke:none"
         id="path202" /><path
         d="m 2545.05,2363.35 v 70.62 c 0.86,-0.83 1.7,-1.69 2.5,-2.59 v -65.44 c -0.8,-0.89 -1.64,-1.76 -2.5,-2.59"
         style="fill:#6c96d5;fill-opacity:1;fill-rule:nonzero;stroke:none"
         id="path204" /><path
         d="m 2788.56,1366.01 c -0.79,0 -1.58,0.03 -2.38,0.1 -15.76,1.3 -27.49,15.12 -26.19,30.89 1.22,14.96 13.75,26.29 28.51,26.29 0.78,0 1.58,-0.03 2.37,-0.09 15.77,-1.3 27.49,-15.13 26.2,-30.89 -1.23,-14.97 -13.76,-26.3 -28.51,-26.3"
         style="fill:#739cd8;fill-opacity:1;fill-rule:nonzero;stroke:none"
         id="path206" /><path
         d="m 2347.43,653.66 c 0.94,3.219 1.57,6.59 1.86,10.07 1.1,13.418 -3.09,26.469 -11.8,36.75 -8.71,10.27 -20.91,16.532 -34.33,17.641 -1.4,0.109 -2.79,0.168 -4.17,0.168 -3.68,0 -7.29,-0.398 -10.77,-1.168 l -1.33,7.367 c 3.93,0.852 7.99,1.301 12.13,1.301 1.57,0 3.16,-0.07 4.75,-0.199 15.43,-1.258 29.43,-8.461 39.44,-20.258 10.01,-11.801 14.83,-26.801 13.56,-42.223 -0.25,-2.968 -0.71,-5.871 -1.38,-8.687 -2.66,-0.363 -5.32,-0.613 -7.96,-0.762"
         style="fill:#d8e6f7;fill-opacity:1;fill-rule:nonzero;stroke:none"
         id="path208" /><path
         d="m 2309.24,610.82 c -0.76,0.981 -1.54,1.942 -2.34,2.891 l -0.76,4.211 c 19.54,2.758 35.76,16.797 41.29,35.738 2.64,0.149 5.3,0.399 7.96,0.762 -5.36,-22.5 -23.73,-39.57 -46.15,-43.602"
         style="fill:#d5e4f6;fill-opacity:1;fill-rule:nonzero;stroke:none"
         id="path210" /><path
         d="m 2264.1,704.199 c -0.07,0.11 -0.13,0.231 -0.19,0.352 -1.14,2.148 -2.24,4.34 -3.31,6.57 7.39,6.551 16.43,11.238 26.29,13.367 l 1.33,-7.367 c -9.18,-2.019 -17.5,-6.562 -24.12,-12.922"
         style="fill:#d0e0f5;fill-opacity:1;fill-rule:nonzero;stroke:none"
         id="path212" /><path
         d="m 2306.9,613.711 c -1.14,1.328 -2.33,2.629 -3.58,3.891 0.95,0.078 1.88,0.187 2.82,0.32 l 0.76,-4.211 m -50.78,27.617 c -2.95,0.524 -6.05,0.942 -9.25,1.242 -4.49,9.231 -6.45,19.532 -5.58,30.032 v 0 c 1.27,15.429 8.54,28.957 19.31,38.519 1.07,-2.23 2.17,-4.422 3.31,-6.57 0.06,-0.121 0.12,-0.242 0.19,-0.352 -8.57,-8.219 -14.29,-19.48 -15.33,-32.219 -0.9,-10.89 1.69,-21.531 7.35,-30.652"
         style="fill:#cfdff4;fill-opacity:1;fill-rule:nonzero;stroke:none"
         id="path214" /><path
         d="m 2917.62,1780.13 c -1.17,0 -2.35,0.04 -3.52,0.14 -23.11,1.9 -40.38,22.25 -38.48,45.36 v 0.01 c 1.8,21.94 20.21,38.61 41.89,38.61 1.15,0 2.31,-0.04 3.48,-0.14 11.2,-0.92 21.36,-6.15 28.63,-14.71 7.26,-8.57 10.76,-19.46 9.84,-30.66 -0.91,-11.19 -6.14,-21.36 -14.7,-28.63 -7.68,-6.5 -17.2,-9.98 -27.14,-9.98 m -0.11,76.62 c -17.87,0 -32.93,-13.69 -34.41,-31.73 -1.57,-18.99 12.62,-35.71 31.61,-37.28 0.97,-0.08 1.94,-0.12 2.91,-0.12 8.18,0 15.99,2.87 22.28,8.21 7.04,5.97 11.33,14.33 12.08,23.53 0.76,9.2 -2.11,18.14 -8.07,25.19 -5.98,7.04 -14.33,11.33 -23.53,12.09 -0.96,0.07 -1.92,0.11 -2.87,0.11"
         style="fill:#d8e6f7;fill-opacity:1;fill-rule:nonzero;stroke:none"
         id="path216" /><path
         d="m 2271.48,2666.72 -1.62,0.06 c -10.78,0.89 -18.83,10.38 -17.96,21.16 v 0.01 c 0.86,10.24 9.59,18.01 19.58,18.01 0.53,0 1.05,-0.02 1.59,-0.07 10.78,-0.88 18.83,-10.38 17.95,-21.16 -0.84,-10.24 -9.45,-18.01 -19.54,-18.01 m -0.04,31.74 c -6.3,0 -11.53,-4.8 -12.06,-11.13 -0.54,-6.66 4.44,-12.52 11.09,-13.07 0.35,-0.03 0.69,-0.04 1.04,-0.04 6.28,0 11.52,4.81 12.03,11.13 0.55,6.65 -4.43,12.52 -11.08,13.07 -0.34,0.02 -0.68,0.04 -1.02,0.04"
         style="fill:#d9e8f7;fill-opacity:1;fill-rule:nonzero;stroke:none"
         id="path218" /><path
         d="m 2713.68,2148.84 c -1.4,0 -2.79,0.05 -4.19,0.17 -27.6,2.27 -48.2,26.56 -45.94,54.15 1.11,13.36 7.34,25.5 17.57,34.18 9.16,7.76 20.59,11.91 32.42,11.91 1.39,0 2.77,-0.05 4.16,-0.17 3.17,-0.26 6.26,-0.8 9.25,-1.62 1.33,-3.13 2.71,-6.28 4.13,-9.42 -4.37,1.95 -9.08,3.17 -13.98,3.57 -1.2,0.1 -2.39,0.15 -3.57,0.15 -10.1,0 -19.77,-3.54 -27.55,-10.14 -8.71,-7.38 -14.02,-17.71 -14.94,-29.08 -1.94,-23.46 15.59,-44.13 39.06,-46.06 1.2,-0.09 2.39,-0.14 3.58,-0.14 10.12,0 19.75,3.53 27.54,10.14 7.35,6.24 12.28,14.58 14.19,23.88 1.7,-2.97 3.44,-5.97 5.21,-8.95 -2.96,-7.93 -7.91,-15.02 -14.55,-20.65 -9.16,-7.76 -20.52,-11.92 -32.39,-11.92 m -46.39,54.01 h 0.1 -0.1"
         style="fill:#d9e8f7;fill-opacity:1;fill-rule:nonzero;stroke:none"
         id="path220" /><path
         d="m 2760.62,2181.41 c -1.77,2.98 -3.51,5.98 -5.21,8.95 0.35,1.7 0.6,3.43 0.74,5.19 0.94,11.37 -2.61,22.42 -9.99,31.12 -4.19,4.95 -9.34,8.8 -15.08,11.37 -1.42,3.14 -2.8,6.29 -4.13,9.42 9.67,-2.65 18.31,-8.13 24.93,-15.94 8.69,-10.23 12.86,-23.22 11.75,-36.59 -0.38,-4.69 -1.4,-9.23 -3.01,-13.52"
         style="fill:#d8e6f7;fill-opacity:1;fill-rule:nonzero;stroke:none"
         id="path222" /><path
         d="m 3043.64,1466.14 c -8.36,18.16 -20.98,34.4 -37.2,47.26 l -70.5,55.88 v 0 l 46.51,-3.82 c 10.21,-3.24 20.46,-6.48 30.82,-9.76 l 25.09,-19.88 c 21.6,-17.12 38.01,-39.11 48.23,-63.69 -4.61,1.04 -9.25,1.55 -13.86,1.55 -10.22,0 -20.24,-2.54 -29.09,-7.54"
         style="fill:#cbdff4;fill-opacity:1;fill-rule:nonzero;stroke:none"
         id="path224" /><path
         d="m 3013.27,1555.7 c -10.36,3.28 -20.61,6.52 -30.82,9.76 l 20.65,-1.7 10.17,-8.06"
         style="fill:#c7d9f2;fill-opacity:1;fill-rule:nonzero;stroke:none"
         id="path226" /><path
         d="m 3039.35,1211.31 15.65,190.43 c 1.85,22.46 -2.22,44.57 -11.36,64.4 8.85,5 18.87,7.54 29.09,7.54 4.61,0 9.25,-0.51 13.86,-1.55 9.57,-23.01 13.71,-48.29 11.6,-73.94 l -11.23,-136.69 c -14.8,-16.41 -30.77,-33.18 -47.61,-50.19"
         style="fill:#c2d8f2;fill-opacity:1;fill-rule:nonzero;stroke:none"
         id="path228" /><path
         d="m 2990.81,620.609 48.54,590.701 c 16.84,17.01 32.81,33.78 47.61,50.19 l -51.04,-621.18 c -6.77,-2 -13.21,-4.269 -19.18,-6.738 -9.22,-3.82 -17.84,-8.191 -25.93,-12.973"
         style="fill:#bcd4f0;fill-opacity:1;fill-rule:nonzero;stroke:none"
         id="path230" /><path
         d="m 3129.84,1783.33 c -14.1,4.95 -28.13,9.99 -42.23,15.21 l 9.03,109.97 c 14.09,-4.65 28.22,-8.77 42.47,-12.39 l -9.27,-112.79"
         style="fill:#cbdff4;fill-opacity:1;fill-rule:nonzero;stroke:none"
         id="path232" /><path
         d="m 3123.95,1711.58 -43.2,3.55 6.86,83.41 c 14.1,-5.22 28.13,-10.26 42.23,-15.21 l -5.89,-71.75"
         style="fill:#c7d9f2;fill-opacity:1;fill-rule:nonzero;stroke:none"
         id="path234" /><path
         d="m 3139.11,1896.12 c -14.25,3.62 -28.38,7.74 -42.47,12.39 l 51.76,629.81 c 0.6,0.03 1.21,0.04 1.83,0.04 1.05,0 2.11,-0.04 3.18,-0.13 21.1,-1.73 36.8,-20.25 35.06,-41.35 l -49.36,-600.76"
         style="fill:#c7d9f2;fill-opacity:1;fill-rule:nonzero;stroke:none"
         id="path236" /><path
         d="m 3020.37,1442.35 c -6.16,38.92 -26.69,74.6 -58.42,99.75 l -35.26,27.94 9.25,-0.76 v 0 l 70.5,-55.88 c 16.22,-12.86 28.84,-29.1 37.2,-47.26 -5.85,-3.31 -11.18,-7.7 -15.73,-13.14 -2.67,-3.2 -5.18,-6.77 -7.54,-10.65"
         style="fill:#accaec;fill-opacity:1;fill-rule:nonzero;stroke:none"
         id="path238" /><path
         d="m 3002.95,1175.36 18.83,229.11 c 1.05,12.8 0.54,25.51 -1.41,37.88 2.36,3.88 4.87,7.45 7.54,10.65 4.55,5.44 9.88,9.83 15.73,13.14 9.14,-19.83 13.21,-41.94 11.36,-64.4 l -15.65,-190.43 c -11.75,-11.88 -23.91,-23.86 -36.4,-35.95"
         style="fill:#a4c4ea;fill-opacity:1;fill-rule:nonzero;stroke:none"
         id="path240" /><path
         d="m 2955.22,594.422 47.73,580.938 c 12.49,12.09 24.65,24.07 36.4,35.95 l -48.54,-590.701 c -13.22,-7.82 -24.99,-16.738 -35.59,-26.187"
         style="fill:#a2c2e9;fill-opacity:1;fill-rule:nonzero;stroke:none"
         id="path242" /><path
         d="m 3087.61,1798.54 c -10.82,4 -21.64,8.08 -32.44,12.26 l 8.99,109.44 c 10.76,-4.23 21.59,-8.13 32.48,-11.73 l -9.03,-109.97"
         style="fill:#accaec;fill-opacity:1;fill-rule:nonzero;stroke:none"
         id="path244" /><path
         d="m 3080.75,1715.13 -33.22,2.73 v 0 l 7.64,92.94 c 10.8,-4.18 21.62,-8.26 32.44,-12.26 l -6.86,-83.41"
         style="fill:#a8c5ea;fill-opacity:1;fill-rule:nonzero;stroke:none"
         id="path246" /><path
         d="m 3096.64,1908.51 c -10.89,3.6 -21.72,7.5 -32.48,11.73 l 47.9,582.92 c 1.6,19.42 17.39,34.26 36.34,35.16 l -51.76,-629.81"
         style="fill:#a8c5ea;fill-opacity:1;fill-rule:nonzero;stroke:none"
         id="path248" /><path
         d="m 2982.45,1565.46 -46.51,3.82 12.58,6.97 c 11.22,-3.58 22.53,-7.18 33.93,-10.79"
         style="fill:#b6d1ef;fill-opacity:1;fill-rule:nonzero;stroke:none"
         id="path250" /><path
         d="m 3003.1,1563.76 -20.65,1.7 c -11.4,3.61 -22.71,7.21 -33.93,10.79 l 66.1,36.65 c 37.87,21 62.6,59.22 66.13,102.23 v 0 l 43.2,-3.55 v 0 c -4.37,-53.03 -34.83,-100.13 -81.51,-126.01 l -39.34,-21.81"
         style="fill:#b1cced;fill-opacity:1;fill-rule:nonzero;stroke:none"
         id="path252" /><path
         d="m 2935.94,1569.28 -9.25,0.76 15.1,8.37 c 2.23,-0.72 4.49,-1.44 6.73,-2.16 l -12.58,-6.97"
         style="fill:#9ebfe8;fill-opacity:1;fill-rule:nonzero;stroke:none"
         id="path254" /><path
         d="m 2948.52,1576.25 c -2.24,0.72 -4.5,1.44 -6.73,2.16 l 24.24,13.44 c 46.68,25.87 77.14,72.98 81.5,126.01 l 33.22,-2.73 v 0 c -3.53,-43.01 -28.26,-81.23 -66.13,-102.23 l -66.1,-36.65"
         style="fill:#9bbde7;fill-opacity:1;fill-rule:nonzero;stroke:none"
         id="path256" /><path
         d="m 3773.49,198.621 c -92.54,4.711 -192.75,8.918 -299.5,12.551 13.09,2.859 26.07,6.109 39.06,9.269 57.7,14.039 115.98,26.457 174.71,37.2 37.95,6.949 77.36,15.238 116.58,15.238 14.94,0 29.86,-1.207 44.66,-4.137 25.63,-5.094 21.05,-22.492 6.76,-35.762 -13.45,-12.468 -32.83,-19.992 -51.43,-25.742 -10.18,-3.148 -20.46,-6.008 -30.84,-8.617 M 1412.72,207 c -46.16,23.172 -89.73,48.102 -136.21,71.051 -60.01,29.648 -124.73,55.929 -192.28,79.32 -51.34,17.777 -145.226,33.649 -165.808,70.328 -3.859,6.883 -4.805,14.223 -3.324,21.43 H 1565.6 c 19.34,-75.57 82.18,-88.481 125.08,-108.949 41.39,-19.75 83.34,-36.469 125.5,-51.75 9.56,-3.301 19.13,-6.559 28.7,-9.782 25.86,-17.328 56.37,-28.507 89.6,-31.238 v 0 l 12.67,-1.039 c 28.61,-8.383 57.28,-16.16 86.02,-23.199 -224.85,-3.25 -434.21,-8.793 -620.45,-16.172 m 1926.88,8.332 c -117.81,3.309 -242.25,5.949 -371.8,7.816 7.5,6.864 14.44,14.313 20.76,22.313 69.64,31.199 135.59,78.641 192.25,153.988 12.09,16.082 23.85,32.762 35.5,49.68 h 13.03 c 7.44,-1.09 15.2,-1.637 22.95,-1.637 7.42,0.008 14.83,0.508 21.92,1.508 0.3,0.051 0.59,0.09 0.89,0.129 h 368.81 c -0.51,-3.328 1.26,-6.438 6.01,-9.18 18.06,-10.367 36.78,-14.418 55.71,-14.418 31.8,0 64.16,11.449 94.79,23.598 h 346.94 c -4.58,-4.918 -9.84,-9.277 -15.18,-13.219 -61.82,-45.609 -137.59,-48.469 -209.47,-60.531 -78.88,-13.25 -158.61,-23.668 -236.89,-40.68 -115.4,-25.078 -230.06,-52.238 -337.89,-94.98 -7.44,-2.949 -14.61,-8.5 -14.15,-15.309 0.25,-3.64 2.54,-6.64 5.82,-9.078 M 1761.05,434.941 c -7.46,4.739 -14.9,9.508 -22.37,14.188 h 22.86 c -0.34,-4.758 -0.5,-9.488 -0.49,-14.188 m 2388.53,16.688 h -342.9 c 7.9,3.172 15.68,6.351 23.29,9.332 51.36,20.109 104.3,36.461 158.44,45.769 15.51,2.661 63.96,12.7 105.84,12.7 33.53,0 62.85,-6.442 67.66,-28.219 1.36,-6.109 0.78,-13.43 -2.17,-22.16 -2.2,-6.512 -5.79,-12.27 -10.16,-17.422 m -504.9,0 h -285.51 c 108.17,17.41 247.06,80.359 367.81,176.141 36.36,8.82 73.9,15.769 112.49,20.23 9.29,1.07 20.57,2.039 31.98,2.039 22.83,0 46.11,-3.891 54.62,-18.629 15.46,-26.769 -20.34,-53.051 -38.83,-64.07 -45.51,-27.098 -94.21,-47.578 -143.48,-65.719 -8.74,-3.223 -89.82,-29.851 -99.08,-49.992 m -2693.942,0 h -35.035 c 1.617,5.703 4.723,11.293 9.078,16.48 7.996,9.52 20,17.7 34.364,24.172 -3.586,-26.293 -8.407,-40.652 -8.407,-40.652 m -5.203,235.121 c -4.234,1.422 -8.465,2.82 -12.711,4.219 -51.144,16.832 -106.726,30.011 -147.105,62.64 -7.86,6.352 -15.129,13.551 -18.641,22.153 -3.508,8.597 -2.652,18.859 4.442,25.777 4.675,4.57 11.464,7.25 18.207,9.43 24.765,7.98 50.25,9.351 76.41,9.351 1.562,0 3.129,0 4.699,-0.011 8.941,-0.047 17.773,-0.379 26.477,-0.938 22.781,-47.75 38.128,-92.242 48.222,-132.621"
         style="fill:#b8d2ef;fill-opacity:1;fill-rule:nonzero;stroke:none"
         id="path258" /><path
         d="m 4147.36,449.129 h -346.94 c 2.09,0.832 4.18,1.672 6.26,2.5 h 342.9 c -0.72,-0.848 -1.46,-1.68 -2.22,-2.5 m -503.45,0 H 3275.1 c 4.64,0.68 9.17,1.519 13.6,2.5 h 70.47 v 0 h 285.51 c -0.39,-0.848 -0.65,-1.68 -0.77,-2.5 m -414.57,0 h -13.03 c 0.5,0.73 1,1.461 1.51,2.199 3.71,-0.887 7.57,-1.617 11.52,-2.199 m -1467.8,0 h -22.86 c -1.34,0.84 -2.67,1.672 -4.01,2.5 h 27.06 l -0.04,-0.488 c -0.05,-0.672 -0.1,-1.34 -0.15,-2.012 m -195.94,0 H 915.098 c 0.168,0.84 0.371,1.672 0.605,2.5 h 35.035 v 0 h 614.242 c 0.21,-0.84 0.41,-1.668 0.62,-2.5"
         style="fill:#a8c3e9;fill-opacity:1;fill-rule:nonzero;stroke:none"
         id="path260" /><path
         d="m 3359.17,451.629 h -70.47 c 28.86,6.371 53.66,18.551 77.39,30.43 72.86,36.461 146.14,73.113 226.62,103.711 42.58,16.191 87.44,30.64 134.27,42 -120.75,-95.782 -259.64,-158.731 -367.81,-176.141 v 0"
         style="fill:#b0caec;fill-opacity:1;fill-rule:nonzero;stroke:none"
         id="path262" /><path
         d="m 1761.73,451.629 h -27.06 c -11.38,7.082 -22.82,13.902 -34.4,20.09 -25.92,13.851 -61.91,33.031 -93.84,33.031 -10.73,0 -21.01,-2.172 -30.28,-7.43 -11.91,-6.761 -16.12,-21.359 -12.55,-39.359 0.43,-2.16 0.89,-4.27 1.38,-6.332 H 950.738 v 0 c 0,0 4.821,14.359 8.407,40.652 12.164,5.481 26.027,9.731 40.566,12.539 16.489,3.168 33.299,4.532 50.169,4.532 44.75,0 89.88,-9.52 130.15,-19.653 41.9,-10.539 83.17,-21.66 126.2,-28.679 14.35,-2.34 34.01,-6.711 52.04,-6.711 11.95,0 23.19,1.921 31.67,7.64 19.81,13.34 -5.24,31.672 -19.31,39.52 -128.24,71.519 -271.32,133.883 -425.095,185.281 -10.094,40.379 -25.441,84.871 -48.222,132.621 119.747,-7.851 217.077,-62.781 305.837,-105.691 83.07,-40.129 178.14,-78.7 276.59,-78.688 8.05,0 16.12,0.25 24.21,0.789 7.94,0.52 17.47,2.36 19.87,8.629 1.22,3.192 0.12,6.641 -0.99,9.86 -5.47,15.96 -14.17,33.41 -18.41,50.769 29.64,-15.707 60.29,-26.789 90.52,-39.699 59.46,-25.43 119.07,-57.59 176.34,-97.57 l -9.55,-116.141"
         style="fill:#b0caec;fill-opacity:1;fill-rule:nonzero;stroke:none"
         id="path264" /><path
         d="m 2372.28,79.2188 c -78.62,0 -157.26,1.3125 -235.76,4.2617 -240.89,9.039 -510.32,20.8905 -703.26,113.4295 -6.91,3.32 -13.75,6.692 -20.54,10.09 186.24,7.379 395.6,12.922 620.45,16.172 51.71,-12.672 103.65,-22.93 155.96,-29.91 108.7,-14.5 217.92,-24.461 327.28,-24.461 64.77,0.008 129.6,3.5 194.35,11.621 5.11,0.637 10.23,1.277 15.37,1.937 l 98.68,-8.109 c 2.28,-0.191 4.56,-0.328 6.83,-0.441 0.59,-0.028 1.18,-0.047 1.77,-0.067 h 0.01 c 0.07,-0.012 0.14,-0.012 0.21,-0.012 0.01,0 0.03,0 0.03,0 0.05,0 0.1,-0.011 0.15,-0.011 0.03,0 0.06,0 0.1,0 0.07,0 0.15,-0.008 0.22,-0.008 0.01,0 0.01,0 0.02,0 2.12,-0.07 4.24,-0.102 6.34,-0.102 48.58,-0.007 93.5,18.61 127.31,49.539 129.55,-1.867 253.99,-4.507 371.8,-7.816 3.55,-2.641 8.26,-4.613 12.75,-5.992 16.32,-5.031 33.7,-7.07 51.17,-7.07 9.99,0 20.01,0.671 29.87,1.832 13.71,1.609 27.21,4.136 40.6,7.07 106.75,-3.633 206.96,-7.84 299.5,-12.551 -42.15,-10.609 -85.72,-17.18 -129.16,-23.121 -53.39,-7.289 -106.62,-15.898 -160.13,-22.961 -186.16,-24.551 -373.04,-45.43 -562.73,-56.0077 -182.5,-10.1797 -365.88,-17.3125 -549.19,-17.3125"
         style="fill:#b0caec;fill-opacity:1;fill-rule:nonzero;stroke:none"
         id="path266" /><path
         d="m 2033.17,223.172 c -28.74,7.039 -57.41,14.816 -86.02,23.199 l 217.31,-17.859 c 0.03,0 0.06,0 0.09,0 l 40.59,-3.34 c -58.17,-0.524 -115.62,-1.192 -171.97,-2 m 955.39,22.289 c 22.3,28.199 36.81,63.059 39.98,101.578 l 8.38,102.09 h 179.39 c -11.65,-16.918 -23.41,-33.598 -35.5,-49.68 C 3124.15,324.102 3058.2,276.66 2988.56,245.461 m -1143.68,33.187 c -9.57,3.223 -19.14,6.481 -28.7,9.782 -42.16,15.281 -84.11,32 -125.5,51.75 -42.9,20.468 -105.74,33.379 -125.08,108.949 h 173.08 c 7.47,-4.68 14.91,-9.449 22.37,-14.188 0.01,-1.953 0.04,-3.89 0.11,-5.82 0.32,-9.832 1.42,-19.512 3.22,-28.949 0,-0.012 0,-0.012 0,-0.012 0.03,-0.14 0.05,-0.281 0.08,-0.422 9.64,-49.898 39.07,-93.367 80.42,-121.09"
         style="fill:#a9c7eb;fill-opacity:1;fill-rule:nonzero;stroke:none"
         id="path268" /><path
         d="m 3216.31,449.129 h -179.39 l 0.21,2.5 h 179.44 c 0.41,-0.098 0.83,-0.199 1.25,-0.301 -0.51,-0.738 -1.01,-1.469 -1.51,-2.199 m -1477.63,0 H 1565.6 c -0.21,0.832 -0.41,1.66 -0.62,2.5 h 169.69 c 1.34,-0.828 2.67,-1.66 4.01,-2.5"
         style="fill:#9abce7;fill-opacity:1;fill-rule:nonzero;stroke:none"
         id="path270" /><path
         d="m 3216.57,451.629 h -179.44 l 15.86,192.98 c 13.35,2.782 27.4,4.411 41.21,4.411 20.39,0 40.25,-3.551 56.53,-12.2 16.13,-8.582 26.16,-21.238 32.49,-34.242 10.94,-22.469 11.86,-46.508 6.92,-69.738 -4.17,-19.59 -21.83,-42.559 -8.13,-61.82 6.47,-9.09 19.22,-15.559 34.56,-19.391"
         style="fill:#a3c1e9;fill-opacity:1;fill-rule:nonzero;stroke:none"
         id="path272" /><path
         d="m 1734.67,451.629 h -169.69 c -0.49,2.062 -0.95,4.172 -1.38,6.332 -3.57,18 0.64,32.598 12.55,39.359 9.27,5.258 19.55,7.43 30.28,7.43 31.93,0 67.92,-19.18 93.84,-33.031 11.58,-6.188 23.02,-13.008 34.4,-20.09 m 36.61,116.141 c -57.27,39.98 -116.88,72.14 -176.34,97.57 -30.23,12.91 -60.88,23.992 -90.52,39.699 -2.32,9.481 -3.3,18.941 -1.7,28.121 5.66,32.469 62.28,48.199 114.13,48.199 24.83,0 48.57,-3.609 65.08,-10.711 18.27,-7.859 31.37,-20.136 40.2,-33.277 10.29,-15.332 13.71,-32 23.03,-47.441 9.12,-15.11 19.86,-29.758 32.57,-43.621 l -6.45,-78.539"
         style="fill:#a3c1e9;fill-opacity:1;fill-rule:nonzero;stroke:none"
         id="path274" /><path
         d="m 2516.41,168.801 c -109.36,0 -218.58,9.961 -327.28,24.461 -52.31,6.98 -104.25,17.238 -155.96,29.91 56.35,0.808 113.8,1.476 171.97,2 l 520.99,-42.813 c -5.14,-0.66 -10.26,-1.3 -15.37,-1.937 -64.75,-8.121 -129.58,-11.613 -194.35,-11.621"
         style="fill:#a3c1e9;fill-opacity:1;fill-rule:nonzero;stroke:none"
         id="path276" /><path
         d="m 2967.8,223.148 v 0 c 7.49,6.852 14.44,14.321 20.76,22.313 v 0 c -6.32,-8 -13.26,-15.449 -20.76,-22.313"
         style="fill:#8cb2e3;fill-opacity:1;fill-rule:nonzero;stroke:none"
         id="path278" /><path
         d="m 2840.49,173.609 c -2.1,0 -4.22,0.032 -6.34,0.102 2.12,-0.07 4.24,-0.102 6.34,-0.102 48.58,-0.007 93.49,18.61 127.31,49.539 v 0 c -33.81,-30.929 -78.73,-49.546 -127.31,-49.539"
         style="fill:#88aee0;fill-opacity:1;fill-rule:nonzero;stroke:none"
         id="path280" /><path
         d="m 2988.56,245.461 c 22.31,28.199 36.81,63.059 39.98,101.578 l -16.61,1.359 c 0,0.012 0,0.012 0,0.012 l 8.28,100.719 h 16.71 l -8.38,-102.09 c -3.17,-38.519 -17.68,-73.379 -39.98,-101.578 v 0"
         style="fill:#84ace0;fill-opacity:1;fill-rule:nonzero;stroke:none"
         id="path282" /><path
         d="m 3036.92,449.129 h -16.71 l 0.2,2.5 h 16.72 l -0.21,-2.5"
         style="fill:#7aa4dc;fill-opacity:1;fill-rule:nonzero;stroke:none"
         id="path284" /><path
         d="m 3037.13,451.629 h -16.72 l 15.51,188.691 c 5.5,1.621 11.21,3.059 17.07,4.289 l -15.86,-192.98"
         style="fill:#80a8de;fill-opacity:1;fill-rule:nonzero;stroke:none"
         id="path286" /><path
         d="m 1764.46,399.738 c -0.03,0.141 -0.05,0.282 -0.08,0.422 0.03,-0.14 0.05,-0.281 0.08,-0.422 m -0.08,0.434 c -1.8,9.437 -2.9,19.117 -3.22,28.949 0.32,-9.832 1.42,-19.512 3.22,-28.949"
         style="fill:#84ace0;fill-opacity:1;fill-rule:nonzero;stroke:none"
         id="path288" /><path
         d="m 1934.48,247.41 c -33.23,2.731 -63.74,13.91 -89.6,31.238 v 0 c 22.54,-15.109 48.62,-25.539 76.95,-29.777 4.17,-0.621 8.39,-1.109 12.65,-1.461"
         style="fill:#9bbde7;fill-opacity:1;fill-rule:nonzero;stroke:none"
         id="path290" /><path
         d="m 1844.88,278.648 v 0 c -41.35,27.723 -70.78,71.192 -80.42,121.09 9.64,-49.898 39.08,-93.367 80.42,-121.09 m -80.5,121.512 c 0,0 0,0 0,0.012 0,-0.012 0,-0.012 0,-0.012"
         style="fill:#8fb5e4;fill-opacity:1;fill-rule:nonzero;stroke:none"
         id="path292" /><path
         d="m 1761.05,434.941 v 0 c -0.01,4.7 0.15,9.43 0.49,14.188 v 0 c -0.33,-4.598 -0.49,-9.18 -0.49,-13.731 0,-0.148 0,-0.308 0,-0.457"
         style="fill:#9bbde7;fill-opacity:1;fill-rule:nonzero;stroke:none"
         id="path294" /><path
         d="m 1761.16,429.121 c -0.07,1.93 -0.1,3.867 -0.11,5.82 v 0 c 0.01,-1.953 0.04,-3.89 0.11,-5.82"
         style="fill:#8fb5e4;fill-opacity:1;fill-rule:nonzero;stroke:none"
         id="path296" /><path
         d="m 2967.8,223.148 c -11.66,0.172 -23.32,0.332 -35.06,0.493 0.38,0.218 0.76,0.441 1.14,0.66 18.42,6.097 36.66,13.078 54.68,21.16 -6.32,-7.992 -13.27,-15.461 -20.76,-22.313"
         style="fill:#7ba4dc;fill-opacity:1;fill-rule:nonzero;stroke:none"
         id="path298" /><path
         d="m 2840.49,173.609 c -2.1,0 -4.22,0.032 -6.34,0.102 -0.01,0 -0.01,0 -0.02,0 -0.07,0 -0.15,0.008 -0.22,0.008 -0.04,0 -0.07,0 -0.1,0 -0.05,0 -0.1,0.011 -0.15,0.011 0,0 -0.02,0 -0.03,0 -0.07,0 -0.14,0 -0.21,0.012 h -0.01 c -0.59,0.02 -1.18,0.039 -1.77,0.067 -2.27,0.113 -4.55,0.25 -6.83,0.441 l -98.68,8.109 c 41.32,5.27 83.73,11.2 126.1,20.161 0.51,0 1.01,0 1.51,0 28.55,-0.008 55.6,7.64 79,21.121 11.74,-0.161 23.4,-0.321 35.06,-0.493 -33.82,-30.929 -78.73,-49.546 -127.31,-49.539"
         style="fill:#779fda;fill-opacity:1;fill-rule:nonzero;stroke:none"
         id="path300" /><path
         d="m 2933.88,224.301 c 43.11,25.301 73.64,70.5 78.05,124.109 l 16.61,-1.371 c -3.17,-38.519 -17.67,-73.379 -39.98,-101.578 -18.02,-8.082 -36.26,-15.063 -54.68,-21.16 m -108.83,0.59 c -105.71,1.039 -214.26,1.578 -325.05,1.578 -100.25,0 -198.7,-0.438 -294.86,-1.297 l -40.59,3.34 c 4.66,-0.391 9.28,-0.571 13.86,-0.571 46.49,0 88.27,19.25 118.23,49.911 l 533.09,-43.801 c 0.36,-0.031 0.74,-0.059 1.1,-0.09 -3.03,-2.441 -4.93,-5.652 -5.78,-9.07"
         style="fill:#749ed9;fill-opacity:1;fill-rule:nonzero;stroke:none"
         id="path302" /><path
         d="m 2726.13,182.359 -520.99,42.813 c 96.16,0.859 194.61,1.297 294.86,1.297 110.79,0 219.34,-0.539 325.05,-1.578 -2.38,-9.582 3.44,-20.84 15.5,-21.832 3.92,-0.317 7.81,-0.5 11.68,-0.539 -42.37,-8.961 -84.78,-14.891 -126.1,-20.161"
         style="fill:#719bd8;fill-opacity:1;fill-rule:nonzero;stroke:none"
         id="path304" /><path
         d="m 1921.83,248.871 c -28.33,4.238 -54.41,14.668 -76.95,29.777 h 0.01 c 22.53,-15.109 48.61,-25.539 76.94,-29.777 m -160.78,186.07 v 0 c 0,0.149 0,0.309 0,0.457 0,-0.148 0,-0.308 0,-0.457"
         style="fill:#7ba4dc;fill-opacity:1;fill-rule:nonzero;stroke:none"
         id="path306" /><path
         d="m 1844.89,278.648 h -0.01 c -41.34,27.723 -70.78,71.192 -80.42,121.09 -0.03,0.141 -0.05,0.282 -0.08,0.422 0,0 0,0 0,0.012 -1.8,9.437 -2.9,19.117 -3.22,28.949 -0.07,1.93 -0.1,3.867 -0.11,5.82 v 0 c 0.18,-64.351 33.02,-122.222 83.84,-156.293"
         style="fill:#749ed9;fill-opacity:1;fill-rule:nonzero;stroke:none"
         id="path308" /><path
         d="m 2935.52,354.68 -130.88,10.761 c 4.71,2.368 9.18,4.957 13.38,7.789 31.36,21.129 44.78,48.879 51.77,75.899 h 73.49 l -7.76,-94.449 v 0 m -442.22,36.34 -149.62,12.289 c -0.4,6.613 -1.19,13.281 -2.4,19.992 l -4.66,25.828 h 64.97 c 25.22,-22 56.27,-41.707 91.71,-58.109"
         style="fill:#6d97d6;fill-opacity:1;fill-rule:nonzero;stroke:none"
         id="path310" /><path
         d="m 2943.28,449.129 h -73.49 c 0.21,0.84 0.42,1.672 0.62,2.5 h 73.07 l -0.2,-2.5 m -541.69,0 h -64.97 l -0.46,2.5 h 62.6 c 0.93,-0.828 1.88,-1.668 2.83,-2.5"
         style="fill:#6893d4;fill-opacity:1;fill-rule:nonzero;stroke:none"
         id="path312" /><path
         d="m 2943.48,451.629 h -73.07 c 0.19,0.762 0.37,1.519 0.55,2.281 11.11,47.731 36.64,95.77 78.82,135.52 1.77,1.679 3.59,3.34 5.44,4.992 l -11.74,-142.793"
         style="fill:#6b95d5;fill-opacity:1;fill-rule:nonzero;stroke:none"
         id="path314" /><path
         d="m 2398.76,451.629 h -62.6 l -28.69,158.91 c 0.59,0.082 1.18,0.18 1.77,0.281 14.63,-18.91 19.55,-43.211 26.67,-67.039 9.82,-32.902 31.7,-64.293 62.85,-92.152"
         style="fill:#6b95d5;fill-opacity:1;fill-rule:nonzero;stroke:none"
         id="path316" /><path
         d="m 2830.83,233.961 c -0.36,0.031 -0.74,0.059 -1.1,0.09 l -533.09,43.801 c 31.5,32.238 49.93,77.097 47.04,125.457 L 2493.3,391.02 c 29.77,-13.782 62.65,-25.211 97.8,-33.7 32.64,-7.879 69.63,-12.73 105.44,-12.73 40.13,0.012 78.78,6.101 108.1,20.851 l 130.88,-10.761 c -5.18,-62.95 -44.78,-93.692 -100.49,-118.188 -1.58,-0.703 -2.98,-1.551 -4.2,-2.531"
         style="fill:#648ed1;fill-opacity:1;fill-rule:nonzero;stroke:none"
         id="path318" /><path
         d="m 1947.15,246.371 -12.67,1.039 v 0 0 l 12.67,-1.039 v 0"
         style="fill:#9bbde7;fill-opacity:1;fill-rule:nonzero;stroke:none"
         id="path320" /><path
         d="m 2164.55,228.512 c -0.03,0 -0.06,0 -0.09,0 l -217.31,17.859 v 0 l 217.4,-17.859"
         style="fill:#8fb5e4;fill-opacity:1;fill-rule:nonzero;stroke:none"
         id="path322" /><path
         d="m 1761.69,451.141 v 0 l 0.04,0.488 h 0.01 l -0.05,-0.5"
         style="fill:#8fb3e3;fill-opacity:1;fill-rule:nonzero;stroke:none"
         id="path324" /><path
         d="m 1761.74,451.629 h -0.01 l 9.55,116.141 v 0 l -9.54,-116.141"
         style="fill:#94b7e5;fill-opacity:1;fill-rule:nonzero;stroke:none"
         id="path326" /><path
         d="m 1771.28,567.77 v 0 l 6.45,78.539 v 0 l -6.45,-78.539"
         style="fill:#8aafe1;fill-opacity:1;fill-rule:nonzero;stroke:none"
         id="path328" /><path
         d="m 1821.5,446.219 -35.4,2.91 h 35.64 l -0.24,-2.91"
         style="fill:#7ba4dc;fill-opacity:1;fill-rule:nonzero;stroke:none"
         id="path330" /><path
         d="m 1821.74,449.129 h -35.64 l -24.41,2.012 0.05,0.488 h 60.2 l -0.2,-2.5"
         style="fill:#729cd8;fill-opacity:1;fill-rule:nonzero;stroke:none"
         id="path332" /><path
         d="m 1821.94,451.629 h -60.2 l 9.54,116.141 c 19.19,-13.391 38.11,-27.661 56.69,-42.86 l -6.03,-73.281"
         style="fill:#779fda;fill-opacity:1;fill-rule:nonzero;stroke:none"
         id="path334" /><path
         d="m 1827.97,524.91 c -18.58,15.199 -37.5,29.469 -56.69,42.86 l 6.45,78.539 c 9.53,-10.387 20.18,-20.348 32.08,-29.727 7.69,-6.051 15.78,-11.934 24.24,-17.633 l -6.08,-74.039"
         style="fill:#719bd8;fill-opacity:1;fill-rule:nonzero;stroke:none"
         id="path336" /><path
         d="m 1761.05,435.398 c 0,4.551 0.16,9.133 0.49,13.731 v 0 c -0.33,-4.598 -0.49,-9.18 -0.49,-13.731"
         style="fill:#85ade0;fill-opacity:1;fill-rule:nonzero;stroke:none"
         id="path338" /><path
         d="m 1761.54,449.129 v 0 c 0.05,0.672 0.1,1.34 0.15,2.012 v 0 -0.012 c -0.05,-0.66 -0.1,-1.328 -0.15,-2"
         style="fill:#7ca4dc;fill-opacity:1;fill-rule:nonzero;stroke:none"
         id="path340" /><path
         d="m 1947.15,246.371 -12.67,1.039 c -4.26,0.352 -8.48,0.84 -12.65,1.461 -28.33,4.238 -54.41,14.668 -76.94,29.777 34.02,-11.429 68.1,-22.277 102.26,-32.277 m -120.07,150.367 c -22.45,10.692 -44.26,24.352 -66.03,38.203 0,0.149 0,0.309 0,0.457 0,4.551 0.16,9.133 0.49,13.731 h 24.56 l 35.4,-2.91 v 0 c -1.42,-17.219 0.64,-33.949 5.58,-49.481"
         style="fill:#6f98d6;fill-opacity:1;fill-rule:nonzero;stroke:none"
         id="path342" /><path
         d="m 1786.1,449.129 h -24.56 c 0.05,0.672 0.1,1.34 0.15,2 v 0 l 24.41,-2"
         style="fill:#6993d4;fill-opacity:1;fill-rule:nonzero;stroke:none"
         id="path344" /><path
         d="m 2178.41,227.941 c -4.58,0 -9.2,0.18 -13.86,0.571 l -217.4,17.859 c -34.16,10 -68.24,20.848 -102.26,32.277 -50.82,34.071 -83.66,91.942 -83.84,156.293 21.77,-13.851 43.58,-27.511 66.03,-38.203 15.38,-48.328 58.71,-85.129 112.32,-89.527 l 357.24,-29.359 c -29.96,-30.661 -71.74,-49.911 -118.23,-49.911"
         style="fill:#6993d4;fill-opacity:1;fill-rule:nonzero;stroke:none"
         id="path346" /><path
         d="m 1916.14,438.449 -94.64,7.77 0.24,2.91 h 87.96 c 2.54,-2.969 4.88,-6.348 6.44,-10.68"
         style="fill:#6892d3;fill-opacity:1;fill-rule:nonzero;stroke:none"
         id="path348" /><path
         d="m 1909.7,449.129 h -87.96 l 0.2,2.5 h 85.5 c 0.76,-0.809 1.52,-1.629 2.26,-2.5"
         style="fill:#638dd1;fill-opacity:1;fill-rule:nonzero;stroke:none"
         id="path350" /><path
         d="m 1907.44,451.629 h -85.5 l 6.03,73.281 c 26.86,-21.969 52.99,-45.879 78.09,-71.828 0.46,-0.48 0.92,-0.961 1.38,-1.453"
         style="fill:#6590d2;fill-opacity:1;fill-rule:nonzero;stroke:none"
         id="path352" /><path
         d="m 2343.68,403.309 -427.54,35.14 c -1.56,4.332 -3.9,7.711 -6.44,10.68 h 426.92 l 4.66,-25.828 c 1.21,-6.711 2,-13.379 2.4,-19.992"
         style="fill:#648fd2;fill-opacity:1;fill-rule:nonzero;stroke:none"
         id="path354" /><path
         d="M 2336.62,449.129 H 1909.7 c -0.74,0.871 -1.5,1.691 -2.26,2.5 h 428.72 l 0.46,-2.5"
         style="fill:#608bcf;fill-opacity:1;fill-rule:nonzero;stroke:none"
         id="path356" /><path
         d="m 2336.16,451.629 h -428.72 c -0.46,0.492 -0.92,0.973 -1.38,1.453 -25.1,25.949 -51.23,49.859 -78.09,71.828 l 6.08,74.039 c 78.78,-53.019 190.06,-89.879 309.91,-97.949 5.63,-0.379 11.39,-0.691 17.09,-0.691 8.19,0 16.27,0.64 23.69,2.64 41.26,11.102 26.46,45.59 12.58,63.91 -8.04,10.621 -17.37,21.063 -21.41,32.45 -11.24,31.73 24.97,43.851 58.3,43.851 4.3,0 8.56,-0.199 12.66,-0.59 2.11,-4.332 4.78,-8.422 7.97,-12.191 10.01,-11.797 24.02,-18.988 39.45,-20.258 1.6,-0.129 3.19,-0.199 4.78,-0.199 2.85,0 5.65,0.207 8.4,0.617 l 28.69,-158.91"
         style="fill:#638cd0;fill-opacity:1;fill-rule:nonzero;stroke:none"
         id="path358" /><path
         d="m 1873.39,383.09 c -10.31,0 -20.66,2.742 -30.63,6.75 -5.27,2.121 -10.49,4.43 -15.68,6.898 -4.94,15.532 -7,32.262 -5.58,49.481 v 0 l 94.64,-7.77 c 0.12,-0.34 0.24,-0.687 0.35,-1.039 3.31,-10.359 1.21,-23.93 -3.61,-32.961 -4.82,-9.027 -11.86,-14.168 -18.93,-17.211 -6.74,-2.906 -13.64,-4.148 -20.56,-4.148"
         style="fill:#608acf;fill-opacity:1;fill-rule:nonzero;stroke:none"
         id="path360" /><path
         d="m 2296.64,277.852 -357.24,29.359 c -53.61,4.398 -96.94,41.199 -112.32,89.527 5.19,-2.468 10.41,-4.777 15.68,-6.898 9.97,-4.008 20.32,-6.75 30.63,-6.75 6.92,0 13.82,1.242 20.56,4.148 7.07,3.043 14.11,8.184 18.93,17.211 4.82,9.031 6.92,22.602 3.61,32.961 -0.11,0.352 -0.23,0.699 -0.35,1.039 l 427.54,-35.14 c 2.89,-48.36 -15.54,-93.219 -47.04,-125.457"
         style="fill:#5c86cd;fill-opacity:1;fill-rule:nonzero;stroke:none"
         id="path362" /><path
         d="m 2299.06,617.422 c -1.38,0 -2.77,0.058 -4.17,0.168 -13.42,1.109 -25.61,7.371 -34.32,17.652 -1.65,1.93 -3.13,3.969 -4.45,6.086 3.5,-0.609 6.79,-1.379 9.79,-2.277 16.58,-4.969 28.49,-12.391 37.41,-21.449 -1.4,-0.11 -2.83,-0.18 -4.26,-0.18"
         style="fill:#638cd0;fill-opacity:1;fill-rule:nonzero;stroke:none"
         id="path364" /><path
         d="m 2307.47,610.539 -0.57,3.172 c 0.8,-0.949 1.58,-1.91 2.34,-2.891 -0.59,-0.101 -1.18,-0.199 -1.77,-0.281"
         style="fill:#9fbee8;fill-opacity:1;fill-rule:nonzero;stroke:none"
         id="path366" /><path
         d="m 2299.07,609.922 c -1.59,0 -3.18,0.07 -4.78,0.199 -15.43,1.27 -29.44,8.461 -39.45,20.258 -3.19,3.769 -5.86,7.859 -7.97,12.191 3.2,-0.3 6.3,-0.718 9.25,-1.242 1.32,-2.117 2.8,-4.156 4.45,-6.086 8.71,-10.281 20.9,-16.543 34.32,-17.652 1.4,-0.11 2.79,-0.168 4.17,-0.168 1.43,0 2.86,0.07 4.26,0.18 1.25,-1.262 2.44,-2.563 3.58,-3.891 l 0.57,-3.172 c -2.75,-0.41 -5.55,-0.617 -8.4,-0.617"
         style="fill:#9cbde7;fill-opacity:1;fill-rule:nonzero;stroke:none"
         id="path368" /><path
         d="m 3011.93,348.398 -43.19,3.551 7.98,97.18 h 43.49 l -8.28,-100.719 v 0"
         style="fill:#92b7e5;fill-opacity:1;fill-rule:nonzero;stroke:none"
         id="path370" /><path
         d="m 3020.21,449.129 h -43.49 l 0.21,2.5 h 43.48 l -0.2,-2.5"
         style="fill:#8bb1e2;fill-opacity:1;fill-rule:nonzero;stroke:none"
         id="path372" /><path
         d="m 3020.41,451.629 h -43.48 l 13.88,168.98 c 8.09,4.782 16.71,9.153 25.93,12.973 5.97,2.469 12.41,4.738 19.18,6.738 l -15.51,-188.691"
         style="fill:#8fb5e4;fill-opacity:1;fill-rule:nonzero;stroke:none"
         id="path374" /><path
         d="m 2932.74,223.641 c -0.3,0 -0.52,0.007 -0.83,0.007 0.65,0.211 1.32,0.434 1.97,0.653 -0.38,-0.219 -0.76,-0.442 -1.14,-0.66"
         style="fill:#8bb2e2;fill-opacity:1;fill-rule:nonzero;stroke:none"
         id="path376" /><path
         d="m 2853.74,202.52 c -0.5,0 -1,0 -1.51,0 26.67,5.64 53.33,12.492 79.68,21.128 0.31,0 0.53,-0.007 0.83,-0.007 -23.4,-13.481 -50.45,-21.129 -79,-21.121"
         style="fill:#88afe1;fill-opacity:1;fill-rule:nonzero;stroke:none"
         id="path378" /><path
         d="m 2931.91,223.648 c -35.22,0.473 -70.94,0.883 -106.86,1.243 0.85,3.418 2.75,6.629 5.78,9.07 3.21,-0.231 6.38,-0.352 9.55,-0.352 66.32,0 122.83,51.082 128.36,118.34 v 0 l 43.19,-3.551 c -4.41,-53.597 -34.94,-98.796 -78.05,-124.097 -0.65,-0.219 -1.32,-0.442 -1.97,-0.653"
         style="fill:#86aee1;fill-opacity:1;fill-rule:nonzero;stroke:none"
         id="path380" /><path
         d="m 2852.23,202.52 c -3.87,0.039 -7.76,0.222 -11.68,0.539 -12.06,0.992 -17.88,12.25 -15.5,21.832 35.92,-0.36 71.64,-0.77 106.86,-1.243 -26.35,-8.636 -53.01,-15.488 -79.68,-21.128"
         style="fill:#84ace0;fill-opacity:1;fill-rule:nonzero;stroke:none"
         id="path382" /><path
         d="m 2968.74,351.949 -33.22,2.731 v 0 l 7.76,94.449 h 33.44 l -7.98,-97.18"
         style="fill:#81a9de;fill-opacity:1;fill-rule:nonzero;stroke:none"
         id="path384" /><path
         d="m 2976.72,449.129 h -33.44 l 0.2,2.5 h 33.45 l -0.21,-2.5"
         style="fill:#7da6dd;fill-opacity:1;fill-rule:nonzero;stroke:none"
         id="path386" /><path
         d="m 2976.93,451.629 h -33.45 l 11.74,142.793 c 10.6,9.449 22.37,18.367 35.59,26.187 l -13.88,-168.98"
         style="fill:#80a8de;fill-opacity:1;fill-rule:nonzero;stroke:none"
         id="path388" /><path
         d="m 2840.38,233.609 c -3.17,0 -6.34,0.121 -9.55,0.352 1.22,0.98 2.62,1.828 4.2,2.531 55.71,24.496 95.31,55.238 100.49,118.188 l 33.22,-2.731 v 0 c -5.53,-67.258 -62.04,-118.34 -128.36,-118.34"
         style="fill:#78a3dc;fill-opacity:1;fill-rule:nonzero;stroke:none"
         id="path390" /><path
         d="m 1067.54,896.039 c 0,0 -168.032,94.801 -155.696,143.711 4.734,18.76 13.281,26.65 24.074,26.65 39.359,0 108.592,-104.92 131.622,-170.361"
         style="fill:#b0caec;fill-opacity:1;fill-rule:nonzero;stroke:none"
         id="path392" /><path
         d="m 3706.15,731.781 c -10.28,0 -16.88,0.258 -16.88,0.258 36.85,33.609 79.71,58.25 107.16,58.25 14.15,0 24.19,-6.539 27.23,-21.75 6.62,-33.199 -79.97,-36.758 -117.51,-36.758"
         style="fill:#b0caec;fill-opacity:1;fill-rule:nonzero;stroke:none"
         id="path394" /><path
         d="m 1399.94,1136.92 c -38.27,20.32 -68.09,52.06 -45.65,65.51 1.59,0.96 3.2,1.4 4.82,1.4 19.92,0 40.83,-66.91 40.83,-66.91"
         style="fill:#b0caec;fill-opacity:1;fill-rule:nonzero;stroke:none"
         id="path396" /></g></g></svg>
