<svg xmlns="http://www.w3.org/2000/svg" version="1.1" xmlns:xlink="http://www.w3.org/1999/xlink" xmlns:svgjs="http://svgjs.com/svgjs" width="512" height="512" x="0" y="0" viewBox="0 0 461.98 461.98" style="enable-background:new 0 0 512 512" xml:space="preserve" class=""><g>
<g xmlns="http://www.w3.org/2000/svg">
	<g id="_x33_2_10_">
		<path d="M448.48,248.067h-38.512c13.756-20.28,23.582-40.46,26.727-59.764c6.693-40.859,0.252-74.479-19.137-99.918    C397.996,62.683,368.088,48,326.053,43.493c-3.744-0.386-7.508-0.581-11.189-0.581c-31.027,0-62.383,12.086-85.675,32.356    c-23.302-20.271-54.651-32.356-85.655-32.356c-3.687,0-7.348,0.189-11.192,0.578c-0.036,0.004-0.071,0.007-0.106,0.011    C90.327,48,60.437,62.677,40.854,88.373c-19.391,25.454-25.848,59.077-19.188,99.951c3.158,19.265,12.991,39.388,26.767,59.608    H13.5c-7.456,0-13.5,6.044-13.5,13.5c0,7.455,6.044,13.5,13.5,13.5h55.439c26.182,31.505,59.045,62.424,88.207,89.855l1.983,1.866    c14.526,13.684,27.08,25.511,35.061,34.088c4.046,4.504,17.934,18.327,35.772,18.327c18.479,0,32.228-14.609,35.563-18.509    c8.856-9.565,23.844-23.732,37.119-36.284c28.721-27.246,61.074-57.938,86.92-89.21h58.916c7.455,0,13.5-6.044,13.5-13.5    S455.938,248.067,448.48,248.067z M278.561,338.883c-13.769,13.017-41.199,45.188-48.6,45.188    c-7.401,0-31.784-28.715-46.832-42.893l-2.001-1.883c-20.538-19.319-44.221-41.602-65.451-64.362h25    c6.268,0,11.712-4.314,13.144-10.417l11.884-50.67l25.442,100.049c1.506,5.924,6.805,10.097,12.917,10.172    c0.057,0.001,0.112,0.001,0.168,0.001c6.042,0,11.359-4.021,12.996-9.853l30.293-107.92l11.553,86.52    c0.81,6.057,5.587,10.814,11.646,11.602c6.061,0.783,11.893-2.599,14.219-8.248l26.234-63.717l8.221,32.434    c1.518,5.988,6.908,10.184,13.086,10.184h10.467C322.037,297.637,298.762,319.719,278.561,338.883z M402.152,182.66    c-3.182,19.533-17.062,42.216-35.727,65.407h-23.441l-15.668-61.817c-1.432-5.644-6.32-9.734-12.127-10.148    c-5.809-0.415-11.227,2.943-13.443,8.326l-22.582,54.847l-13.553-101.494c-0.848-6.35-6.041-11.229-12.432-11.68    c-6.391-0.451-12.217,3.651-13.947,9.818l-34.359,122.402l-26.615-104.664c-1.523-5.988-6.914-10.173-13.082-10.173    c-0.042,0-0.085,0-0.127,0.001c-6.221,0.058-11.597,4.359-13.018,10.416l-22.054,94.031H92.046    c-18.733-23.137-32.643-45.758-35.838-65.254c-5.05-30.996-0.849-55.59,12.485-73.094c13.431-17.622,35.42-27.854,67.221-31.276    c2.644-0.267,5.136-0.396,7.619-0.396c27.352,0,55.022,12.824,72.211,33.467c3.325,3.993,8.252,6.302,13.448,6.302    c0.001,0,0.003,0,0.004,0c5.197-0.001,10.125-2.313,13.449-6.309c17.168-20.639,44.842-33.46,72.219-33.46    c2.486,0,5.043,0.134,7.529,0.39c31.877,3.417,53.895,13.649,67.322,31.29C403.047,127.083,407.232,151.661,402.152,182.66z" fill="#45c0c4" data-original="#000000" class=""></path>
	</g>
</g>
<g xmlns="http://www.w3.org/2000/svg">
</g>
<g xmlns="http://www.w3.org/2000/svg">
</g>
<g xmlns="http://www.w3.org/2000/svg">
</g>
<g xmlns="http://www.w3.org/2000/svg">
</g>
<g xmlns="http://www.w3.org/2000/svg">
</g>
<g xmlns="http://www.w3.org/2000/svg">
</g>
<g xmlns="http://www.w3.org/2000/svg">
</g>
<g xmlns="http://www.w3.org/2000/svg">
</g>
<g xmlns="http://www.w3.org/2000/svg">
</g>
<g xmlns="http://www.w3.org/2000/svg">
</g>
<g xmlns="http://www.w3.org/2000/svg">
</g>
<g xmlns="http://www.w3.org/2000/svg">
</g>
<g xmlns="http://www.w3.org/2000/svg">
</g>
<g xmlns="http://www.w3.org/2000/svg">
</g>
<g xmlns="http://www.w3.org/2000/svg">
</g>
</g></svg>