<svg xmlns="http://www.w3.org/2000/svg" version="1.1" xmlns:xlink="http://www.w3.org/1999/xlink" xmlns:svgjs="http://svgjs.com/svgjs" width="512" height="512" x="0" y="0" viewBox="0 0 512 512" style="enable-background:new 0 0 512 512" xml:space="preserve" class=""><g>
<path xmlns="http://www.w3.org/2000/svg" style="" d="M504,167.68c0,14.24-1.2,27.12-3.44,38.88H416L371.2,272L312,139.44l-44.8,67.12h-44.8L177.6,272  L110.4,95.44L73.6,206.56H11.44C9.2,194.8,8,181.92,8,167.68C8,88.08,63.2,24,131.6,24C177.52,24,228,53.36,256,96.72  C284,53.36,334.48,24,380.4,24C448.8,24,504,88.08,504,167.68z" fill="#34a0a4" data-original="#54febd" class=""></path>
<g xmlns="http://www.w3.org/2000/svg">
	<path style="" d="M256,488c-2.536,0-4.928-1.208-6.44-3.248c-38.776-52.536-85.84-83.816-127.368-111.408   C56.624,329.768,0,292.136,0,191.696C0,108.048,59.024,40,131.568,40c45.416,0,94.08,26.448,124.432,66.792   C286.352,66.448,335.016,40,380.432,40C452.976,40,512,108.048,512,191.696c0,100.44-56.624,138.072-122.192,181.648   c-41.528,27.592-88.592,58.872-127.368,111.408C260.928,486.792,258.536,488,256,488z M131.568,56C67.84,56,16,116.872,16,191.696   c0,91.864,50.768,125.6,115.048,168.32C171.432,386.848,216.928,417.088,256,466.8c39.072-49.712,84.568-79.944,124.952-106.784   C445.232,317.296,496,283.56,496,191.696C496,116.872,444.16,56,380.432,56c-43.04,0-91.448,28.416-117.704,69.096   c-2.952,4.56-10.496,4.56-13.448,0C223.016,84.416,174.608,56,131.568,56z" fill="#3d405b" data-original="#1d1b4c" class=""></path>
	<path style="" d="M472,199.696c-4.416,0-8-3.584-8-8c0-3.632-0.152-7.208-0.448-10.736   c-0.296-3.52-0.736-7-1.312-10.424c-0.568-3.408-1.28-6.752-2.12-10.032c-0.832-3.28-1.8-6.488-2.888-9.608   c-1.088-3.128-2.296-6.176-3.616-9.136c-1.32-2.952-2.744-5.816-4.28-8.592c-1.528-2.76-3.168-5.432-4.904-8   c-1.728-2.552-3.552-5.008-5.48-7.352c-2.8-3.416-2.304-8.456,1.12-11.256c3.424-2.792,8.456-2.296,11.256,1.12   c2.224,2.72,4.344,5.56,6.352,8.52c2,2.952,3.88,6.024,5.648,9.208c1.76,3.168,3.392,6.448,4.904,9.832   c1.504,3.376,2.872,6.84,4.112,10.4c1.232,3.544,2.328,7.184,3.272,10.904c0.952,3.704,1.752,7.496,2.4,11.344   c0.648,3.848,1.136,7.76,1.472,11.736s0.504,8,0.504,12.072C480,196.112,476.416,199.696,472,199.696z" fill="#3d405b" data-original="#1d1b4c" class=""></path>
	<path style="" d="M424.032,101.504c-1.52,0-3.056-0.432-4.416-1.336c-2.352-1.56-4.768-2.984-7.256-4.264   c-3.928-2.024-5.464-6.856-3.44-10.784c2.032-3.92,6.84-5.472,10.784-3.44c2.976,1.536,5.92,3.272,8.752,5.152   c3.68,2.44,4.688,7.408,2.248,11.088C429.168,100.24,426.632,101.504,424.032,101.504z" fill="#3d405b" data-original="#1d1b4c" class=""></path>
</g>
<path xmlns="http://www.w3.org/2000/svg" id="SVGCleanerId_0" style="" d="M177.6,304c-0.312,0-0.632-0.016-0.944-0.056  c-2.96-0.352-5.472-2.32-6.528-5.096l-59.2-155.536L81.2,233.08c-1.088,3.264-4.152,5.48-7.6,5.48H11.44c-4.416,0-8-3.584-8-8  s3.584-8,8-8h56.384l34.984-105.632c1.064-3.208,4.032-5.408,7.416-5.488c3.384-0.04,6.448,1.992,7.656,5.152l61.76,162.272  l36.16-52.824c1.496-2.176,3.96-3.48,6.6-3.48h40.52L305.344,159c1.616-2.424,4.448-3.808,7.328-3.528  c2.904,0.248,5.448,2.048,6.632,4.712l53.368,119.504l36.72-53.648c1.496-2.184,3.968-3.48,6.608-3.48h84.56c4.416,0,8,3.584,8,8  s-3.584,8-8,8h-80.344L377.8,300.52c-1.632,2.392-4.472,3.696-7.32,3.448c-2.888-0.264-5.408-2.064-6.584-4.704l-53.288-119.328  L273.856,235c-1.488,2.224-3.984,3.56-6.656,3.56h-40.584L184.2,300.52C182.696,302.712,180.224,304,177.6,304z" fill="#3d405b" data-original="#1d1b4c" class=""></path>
<g xmlns="http://www.w3.org/2000/svg">
	<path style="" d="M256,448c-2.08,0-4.16-0.88-5.68-2.32c-1.44-1.52-2.32-3.6-2.32-5.68s0.88-4.16,2.32-5.68   c2.96-2.96,8.32-2.96,11.36,0c1.44,1.52,2.32,3.6,2.32,5.68s-0.88,4.16-2.32,5.68C260.16,447.12,258.08,448,256,448z" fill="#3d405b" data-original="#1d1b4c" class=""></path>
	<path style="" d="M256,416c-2.08,0-4.16-0.88-5.68-2.32c-1.44-1.52-2.32-3.52-2.32-5.68c0-2.08,0.88-4.16,2.32-5.68   c2.96-2.96,8.4-2.96,11.36,0c1.44,1.52,2.32,3.6,2.32,5.68s-0.88,4.16-2.32,5.68C260.16,415.12,258.08,416,256,416z" fill="#3d405b" data-original="#1d1b4c" class=""></path>
	<path style="" d="M288,416c-2.08,0-4.16-0.88-5.68-2.32c-1.44-1.52-2.32-3.6-2.32-5.68s0.88-4.16,2.32-5.68   c2.96-2.96,8.4-2.96,11.36,0c1.44,1.52,2.32,3.6,2.32,5.68c0,2.16-0.88,4.16-2.4,5.68C292.16,415.12,290.08,416,288,416z" fill="#3d405b" data-original="#1d1b4c" class=""></path>
	<path style="" d="M224,416c-2.08,0-4.16-0.88-5.68-2.32c-1.44-1.52-2.32-3.6-2.32-5.68s0.88-4.16,2.32-5.68   c2.96-2.96,8.4-2.96,11.36,0c1.44,1.52,2.32,3.6,2.32,5.68s-0.88,4.16-2.32,5.68C228.16,415.12,226.08,416,224,416z" fill="#3d405b" data-original="#1d1b4c" class=""></path>
	<path style="" d="M256,384c-2.08,0-4.16-0.88-5.68-2.32c-1.44-1.52-2.32-3.6-2.32-5.68s0.88-4.16,2.32-5.68   c3.04-2.96,8.4-2.96,11.36,0c1.44,1.52,2.32,3.6,2.32,5.68s-0.88,4.16-2.32,5.68C260.16,383.12,258.08,384,256,384z" fill="#3d405b" data-original="#1d1b4c" class=""></path>
	<path style="" d="M288,384c-2.08,0-4.16-0.88-5.68-2.32c-1.44-1.52-2.32-3.6-2.32-5.68s0.88-4.16,2.32-5.68   c2.96-2.88,8.32-2.96,11.36,0c1.44,1.52,2.32,3.6,2.32,5.68s-0.88,4.16-2.32,5.68C292.16,383.12,290.08,384,288,384z" fill="#3d405b" data-original="#1d1b4c" class=""></path>
	<path style="" d="M224,384c-2.16,0-4.16-0.88-5.68-2.32c-1.44-1.52-2.32-3.6-2.32-5.68s0.88-4.16,2.32-5.68   c2.96-2.96,8.4-2.96,11.36,0c1.44,1.52,2.32,3.6,2.32,5.68s-0.88,4.16-2.32,5.68C228.16,383.12,226.08,384,224,384z" fill="#3d405b" data-original="#1d1b4c" class=""></path>
	<path style="" d="M320,384c-2.16,0-4.16-0.88-5.68-2.32c-1.44-1.52-2.32-3.6-2.32-5.68s0.88-4.16,2.32-5.68   c2.96-2.96,8.4-2.96,11.36,0c1.44,1.52,2.32,3.6,2.32,5.68s-0.88,4.16-2.32,5.68C324.16,383.12,322.08,384,320,384z" fill="#3d405b" data-original="#1d1b4c" class=""></path>
	<path style="" d="M192,384c-2.08,0-4.16-0.88-5.68-2.32c-1.44-1.52-2.32-3.6-2.32-5.68s0.88-4.16,2.32-5.68   c2.96-2.96,8.32-2.96,11.36,0c1.44,1.52,2.32,3.6,2.32,5.68s-0.88,4.16-2.32,5.68C196.16,383.12,194.08,384,192,384z" fill="#3d405b" data-original="#1d1b4c" class=""></path>
	<path style="" d="M288,352c-2.08,0-4.16-0.88-5.68-2.32c-1.44-1.52-2.32-3.6-2.32-5.68s0.88-4.16,2.32-5.68   c3.04-2.96,8.4-2.96,11.36,0c1.44,1.52,2.32,3.6,2.32,5.68s-0.88,4.16-2.32,5.68C292.16,351.12,290.08,352,288,352z" fill="#3d405b" data-original="#1d1b4c" class=""></path>
	<path style="" d="M224,352c-2.08,0-4.16-0.88-5.68-2.32c-1.44-1.52-2.32-3.6-2.32-5.68s0.88-4.16,2.32-5.68   c2.96-2.96,8.32-2.96,11.36,0c1.44,1.52,2.32,3.6,2.32,5.68s-0.88,4.16-2.32,5.68C228.16,351.12,226.08,352,224,352z" fill="#3d405b" data-original="#1d1b4c" class=""></path>
	<path style="" d="M352,352c-2.08,0-4.16-0.88-5.68-2.32c-1.44-1.52-2.32-3.6-2.32-5.68s0.88-4.16,2.32-5.68   c3.04-2.96,8.32-2.96,11.36,0c1.44,1.52,2.32,3.6,2.32,5.68s-0.88,4.16-2.32,5.68C356.16,351.12,354.08,352,352,352z" fill="#3d405b" data-original="#1d1b4c" class=""></path>
	<path style="" d="M160,352c-2.08,0-4.16-0.88-5.68-2.32c-1.44-1.52-2.32-3.6-2.32-5.68s0.88-4.16,2.32-5.68   c3.04-2.96,8.4-2.96,11.36,0c1.44,1.52,2.32,3.6,2.32,5.68s-0.88,4.16-2.32,5.68C164.16,351.12,162.08,352,160,352z" fill="#3d405b" data-original="#1d1b4c" class=""></path>
</g>
<g xmlns="http://www.w3.org/2000/svg">
	<path id="SVGCleanerId_0_1_" style="" d="M177.6,304c-0.312,0-0.632-0.016-0.944-0.056   c-2.96-0.352-5.472-2.32-6.528-5.096l-59.2-155.536L81.2,233.08c-1.088,3.264-4.152,5.48-7.6,5.48H11.44c-4.416,0-8-3.584-8-8   s3.584-8,8-8h56.384l34.984-105.632c1.064-3.208,4.032-5.408,7.416-5.488c3.384-0.04,6.448,1.992,7.656,5.152l61.76,162.272   l36.16-52.824c1.496-2.176,3.96-3.48,6.6-3.48h40.52L305.344,159c1.616-2.424,4.448-3.808,7.328-3.528   c2.904,0.248,5.448,2.048,6.632,4.712l53.368,119.504l36.72-53.648c1.496-2.184,3.968-3.48,6.608-3.48h84.56c4.416,0,8,3.584,8,8   s-3.584,8-8,8h-80.344L377.8,300.52c-1.632,2.392-4.472,3.696-7.32,3.448c-2.888-0.264-5.408-2.064-6.584-4.704l-53.288-119.328   L273.856,235c-1.488,2.224-3.984,3.56-6.656,3.56h-40.584L184.2,300.52C182.696,302.712,180.224,304,177.6,304z" fill="#3d405b" data-original="#1d1b4c" class=""></path>
</g>
<g xmlns="http://www.w3.org/2000/svg">
</g>
<g xmlns="http://www.w3.org/2000/svg">
</g>
<g xmlns="http://www.w3.org/2000/svg">
</g>
<g xmlns="http://www.w3.org/2000/svg">
</g>
<g xmlns="http://www.w3.org/2000/svg">
</g>
<g xmlns="http://www.w3.org/2000/svg">
</g>
<g xmlns="http://www.w3.org/2000/svg">
</g>
<g xmlns="http://www.w3.org/2000/svg">
</g>
<g xmlns="http://www.w3.org/2000/svg">
</g>
<g xmlns="http://www.w3.org/2000/svg">
</g>
<g xmlns="http://www.w3.org/2000/svg">
</g>
<g xmlns="http://www.w3.org/2000/svg">
</g>
<g xmlns="http://www.w3.org/2000/svg">
</g>
<g xmlns="http://www.w3.org/2000/svg">
</g>
<g xmlns="http://www.w3.org/2000/svg">
</g>
</g></svg>